<?xml version="1.0" encoding="UTF-8" standalone="no"?>
<!-- Created with Inkscape (http://www.inkscape.org/) -->

<svg
   xmlns:dc="http://purl.org/dc/elements/1.1/"
   xmlns:cc="http://creativecommons.org/ns#"
   xmlns:rdf="http://www.w3.org/1999/02/22-rdf-syntax-ns#"
   xmlns:svg="http://www.w3.org/2000/svg"
   xmlns="http://www.w3.org/2000/svg"
   xmlns:sodipodi="http://sodipodi.sourceforge.net/DTD/sodipodi-0.dtd"
   xmlns:inkscape="http://www.inkscape.org/namespaces/inkscape"
   width="410.29224mm"
   height="293.72067mm"
   viewBox="0 0 410.29224 293.72067"
   version="1.1"
   id="svg3798"
   inkscape:version="0.92.2 5c3e80d, 2017-08-06"
   sodipodi:docname="logoSmall.svg">
  <defs
     id="defs3792" />
  <sodipodi:namedview
     id="base"
     pagecolor="#ffffff"
     bordercolor="#666666"
     borderopacity="1.0"
     inkscape:pageopacity="0.0"
     inkscape:pageshadow="2"
     inkscape:zoom="0.35"
     inkscape:cx="723.98736"
     inkscape:cy="530.02524"
     inkscape:document-units="mm"
     inkscape:current-layer="layer1"
     showgrid="false"
     inkscape:window-width="1916"
     inkscape:window-height="1029"
     inkscape:window-x="0"
     inkscape:window-y="24"
     inkscape:window-maximized="0"
     fit-margin-top="0"
     fit-margin-left="0"
     fit-margin-right="0"
     fit-margin-bottom="0" />
  <metadata
     id="metadata3795">
    <rdf:RDF>
      <cc:Work
         rdf:about="">
        <dc:format>image/svg+xml</dc:format>
        <dc:type
           rdf:resource="http://purl.org/dc/dcmitype/StillImage" />
        <dc:title></dc:title>
      </cc:Work>
    </rdf:RDF>
  </metadata>
  <g
     inkscape:label="Layer 1"
     inkscape:groupmode="layer"
     id="layer1"
     transform="translate(85.721655,4.6515046)">
    <path
       inkscape:connector-curvature="0"
       style="display:block;fill:#000000;fill-rule:evenodd;stroke:none;stroke-width:0.26458332"
       id="path0"
       d="m 158.67065,96.936873 c 0,2.2434 0.005,3.161237 0.0119,2.03941 0.006,-1.12157 0.006,-2.95725 0,-4.07882 -0.007,-1.12183 -0.0119,-0.204 -0.0119,2.03941 m -44.39788,-3.41022 c -0.0402,0.0405 -0.037,0.44556 0.004,0.47096 0.0183,0.0111 0.0331,-0.0968 0.0331,-0.23998 0,-0.14314 -0.002,-0.26035 -0.004,-0.26035 -0.002,0 -0.0167,0.0132 -0.0331,0.0294 m 1.21867,0.23522 c 0,0.13335 0.008,0.18785 0.0183,0.12118 0.0103,-0.0667 0.0103,-0.17569 0,-0.24236 -0.0101,-0.0667 -0.0183,-0.0122 -0.0183,0.12118 m 44.24575,1.21999 c -0.0458,0.0458 -0.0347,0.7202 0.0119,0.7202 0.023,0 0.054,-0.0198 0.0688,-0.0439 0.0151,-0.0243 0.005,-0.0442 -0.0228,-0.0442 -0.0344,0 -0.0458,-0.10451 -0.0357,-0.33073 0.008,-0.18203 0.0127,-0.33099 0.0108,-0.33073 -0.002,0 -0.0169,0.0132 -0.0331,0.0294 m -56.94776,0.25982 c -0.0617,0.0669 -0.082,3.96584 -0.0214,4.06136 0.0177,0.028 0.0267,-0.85249 0.0201,-1.95633 -0.009,-1.48564 10e-4,-2.02327 0.0392,-2.06957 0.0677,-0.0815 0.0336,-0.11325 -0.0378,-0.0355 m 30.06142,1.05781 c -0.031,0.0376 -0.0881,0.0561 -0.12647,0.0415 -0.0566,-0.0217 -0.0595,-0.0159 -0.0145,0.0294 0.045,0.0453 0.0743,0.0373 0.1532,-0.0415 0.0534,-0.0537 0.0855,-0.0976 0.0709,-0.0976 -0.0146,0 -0.0519,0.0307 -0.0831,0.0683 m -10.93444,0.59319 c 0,0.0728 0.0198,0.13229 0.0442,0.13229 0.0243,0 0.0442,-0.0595 0.0442,-0.13229 0,-0.0728 -0.0198,-0.13229 -0.0442,-0.13229 -0.0243,0 -0.0442,0.0595 -0.0442,0.13229 m 35.50946,0.46302 c 5.3e-4,0.0971 0.01,0.1315 0.0201,0.0767 0.0106,-0.0548 0.0101,-0.13414 -7.9e-4,-0.17648 -0.0111,-0.0421 -0.0198,0.003 -0.0193,0.0998 m -32.36463,0.0992 c 0.38338,0.007 0.99854,0.007 1.36684,0 0.36857,-0.007 0.0548,-0.0135 -0.69718,-0.0135 -0.75194,2.6e-4 -1.0533,0.006 -0.66966,0.0135 m 29.23646,0 c 0.38338,0.007 0.99854,0.007 1.36684,0 0.36856,-0.007 0.0548,-0.0135 -0.69718,-0.0135 -0.75194,2.6e-4 -1.0533,0.006 -0.66966,0.0135 m -36.21776,1.77774 c 0,1.136907 0.0151,1.712907 0.0442,1.694917 0.028,-0.0172 0.0442,-0.63977 0.0442,-1.722437 0,-1.10067 -0.0156,-1.69492 -0.0442,-1.69492 -0.0286,0 -0.0442,0.60351 -0.0442,1.72244 m 20.86504,-1.11893 c -0.004,0.22305 0.008,0.41461 0.0262,0.42598 0.018,0.0114 0.0275,-0.11139 0.0209,-0.27305 -0.0212,-0.51144 -0.0397,-0.5715 -0.0471,-0.15293 m -49.29557,-0.0304 c 0.0617,0.0487 0.12647,0.0884 0.1442,0.0884 0.0175,0 -0.0185,-0.0397 -0.0802,-0.0884 -0.0616,-0.0484 -0.12647,-0.0881 -0.1442,-0.0881 -0.0175,0 0.0185,0.0397 0.0802,0.0881 m 62.7552,0.0196 c -0.0132,0.0347 -0.006,0.0968 0.0175,0.13784 0.0328,0.0587 0.0408,0.0453 0.0368,-0.0632 -0.006,-0.15267 -0.0177,-0.1696 -0.0542,-0.0746 m -13.31013,0.51329 c 0.036,0.0582 2.56461,0.0532 2.60059,-0.005 0.0193,-0.031 -0.39317,-0.0439 -1.29857,-0.0405 -0.79508,0.003 -1.3171,0.0214 -1.30202,0.0458 m 24.74649,0.023 c -0.0177,0.0177 -0.032,0.0627 -0.032,0.0998 0,0.0497 0.013,0.0545 0.049,0.0185 0.027,-0.027 0.0415,-0.0717 0.0323,-0.0998 -0.01,-0.0278 -0.0315,-0.0362 -0.0492,-0.0185 m -19.09429,0.28469 c 0.023,0.0884 0.0786,0.11218 0.11694,0.0503 0.0119,-0.0193 -0.0146,-0.058 -0.0587,-0.0855 -0.0691,-0.0431 -0.0773,-0.0381 -0.0582,0.0352 m 9.25063,0.79137 c 0.0442,0.0487 0.0892,0.0794 0.10028,0.0683 0.0241,-0.0238 -0.10187,-0.15663 -0.14817,-0.15663 -0.0177,0 0.004,0.0397 0.0479,0.0884 m -92.78355,1.509967 -0.12938,0.14341 0.14314,-0.12965 c 0.13361,-0.12065 0.16377,-0.1569 0.12964,-0.1569 -0.008,0 -0.0722,0.0643 -0.1434,0.14314 m 31.56558,3.80339 c 5.3e-4,0.0971 0.01,0.1315 0.0201,0.0767 0.0103,-0.0548 0.0101,-0.13414 -10e-4,-0.17648 -0.0111,-0.0421 -0.0196,0.003 -0.019,0.0998 m 22.41894,0.45218 c -0.0114,0.018 0.17092,0.0278 0.40535,0.0212 0.78581,-0.0214 0.87153,-0.0378 0.24103,-0.0463 -0.34422,-0.004 -0.635,0.007 -0.64638,0.0251 m -19.078837,3.47001 c 0,0.18044 0.0151,0.33734 0.0331,0.34845 0.0183,0.0114 0.0331,-0.13626 0.0331,-0.32808 0,-0.19156 -0.0148,-0.34846 -0.0331,-0.34846 -0.018,0 -0.0331,0.14764 -0.0331,0.32809 m 12.435417,-0.16643 c 0.47361,0.032 1.04854,0.0341 1.02976,0.004 -0.0114,-0.0183 -0.29237,-0.0296 -0.62442,-0.0251 -0.33205,0.004 -0.51435,0.014 -0.40534,0.0214 m 33.45894,0.003 c 0.17569,0.008 0.46355,0.008 0.63924,0 0.17595,-0.008 0.032,-0.0151 -0.31962,-0.0151 -0.35163,0 -0.49556,0.007 -0.31962,0.0151 m 10.02083,5.3e-4 c 0,0.018 0.19341,0.0278 0.42995,0.0214 0.76624,-0.0209 0.84111,-0.0386 0.1987,-0.0466 -0.34581,-0.005 -0.62865,0.007 -0.62865,0.0251 m 8.67622,-2.6e-4 c 0.20029,0.008 0.52758,0.008 0.72761,0 0.20029,-0.008 0.0365,-0.0148 -0.3638,-0.0148 -0.40005,0 -0.56383,0.007 -0.36381,0.0148 m -19.47995,0.0934 c 0,0.0209 0.0497,0.0283 0.11033,0.0167 0.0606,-0.0114 0.11034,-0.0286 0.11034,-0.0378 0,-0.009 -0.0497,-0.0169 -0.11034,-0.0169 -0.0606,0 -0.11033,0.0172 -0.11033,0.0381 m 20.86902,-0.008 c 0.0426,0.0111 0.11192,0.0111 0.15451,0 0.0423,-0.0111 0.008,-0.0201 -0.0773,-0.0201 -0.0849,0 -0.1196,0.009 -0.0773,0.0201 m -25.994,0.12647 0.0979,0.0685 v 4.09601 c 0,2.68314 -0.0151,4.10528 -0.0439,4.12327 -0.0243,0.0148 -0.0442,0.0497 -0.0442,0.077 0,0.0275 0.0291,0.0114 0.0648,-0.0354 0.11139,-0.14737 0.0987,-8.22378 -0.0132,-8.32511 -0.0442,-0.0402 -0.0984,-0.073 -0.12012,-0.073 -0.0214,0 0.005,0.031 0.0587,0.0688 m -30.2215,1.00065 -0.12965,0.1434 0.14341,-0.12964 c 0.0789,-0.0712 0.14314,-0.13573 0.14314,-0.14341 0,-0.0339 -0.0362,-0.004 -0.1569,0.12965 m 4.74319,0.72363 c 0,0.0241 0.0545,0.0918 0.12118,0.15055 l 0.12117,0.10689 -0.11006,-0.13229 c -0.0606,-0.0728 -0.11536,-0.14049 -0.12145,-0.15055 -0.006,-0.0101 -0.0109,0.001 -0.0109,0.0254 m -30.95783,0.44503 -0.24104,0.25347 0.25347,-0.24103 c 0.13944,-0.13256 0.25374,-0.24659 0.25374,-0.25347 0,-0.0328 -0.0423,0.005 -0.26617,0.24103 m 58.57531,1.2237 c 2.6e-4,0.12118 0.009,0.16563 0.0191,0.0984 0.01,-0.0669 0.01,-0.16616 -8e-4,-0.2204 -0.0103,-0.0542 -0.0188,5.3e-4 -0.0183,0.12198 m -25.22061,0.26458 c -2.6e-4,0.21828 0.007,0.313 0.0164,0.21061 0.009,-0.10213 0.01,-0.28072 2.7e-4,-0.39688 -0.009,-0.11588 -0.0167,-0.032 -0.0167,0.18627 m 0,1.05833 c -2.7e-4,0.21828 0.007,0.31301 0.0164,0.21061 0.009,-0.10213 0.01,-0.28072 2.6e-4,-0.39687 -0.009,-0.11589 -0.0167,-0.032 -0.0167,0.18626 m 25.21823,0.24236 c 0,0.0849 0.009,0.11959 0.0201,0.0773 0.0111,-0.0423 0.0111,-0.11192 0,-0.15425 -0.0111,-0.0426 -0.0201,-0.008 -0.0201,0.077 M 60.9082,115.414 c 0.0947,0.0971 0.18203,0.17647 0.19421,0.17647 0.0122,0 -0.0553,-0.0794 -0.15002,-0.17647 -0.0947,-0.0968 -0.1823,-0.17622 -0.19447,-0.17622 -0.0119,0 0.0556,0.0794 0.15028,0.17622 m 63.35157,0.18018 c -0.15902,0.1852 -0.15399,0.23839 0.007,0.0728 0.15187,-0.15637 0.22172,-0.25321 0.17965,-0.24924 -0.0212,0.002 -0.10504,0.0815 -0.18679,0.17648 m -12.42193,0.88926 -0.12964,0.1434 0.1434,-0.12964 c 0.13362,-0.12065 0.16351,-0.15716 0.12938,-0.15716 -0.008,0 -0.072,0.0646 -0.14314,0.1434" />
    <path
       inkscape:connector-curvature="0"
       style="display:block;fill:#242424;fill-rule:evenodd;stroke:none;stroke-width:0.26458332"
       id="path1"
       d="m 159.70782,93.960303 c 0,0.68316 0.0151,1.03214 0.0439,1.01415 0.0272,-0.0167 0.0442,-0.40375 0.0442,-1.01415 0,-0.61039 -0.0169,-0.99747 -0.0442,-1.01414 -0.0288,-0.018 -0.0439,0.33099 -0.0439,1.01414 m -63.542597,-0.55403 c -0.0611,0.1143 -0.0622,7.449867 -10e-4,7.543527 0.0283,0.0434 0.0426,-1.236127 0.0415,-3.738557 -8e-4,-2.09259 0.0103,-3.82402 0.0249,-3.84757 0.0146,-0.0236 0.0161,-0.0429 0.003,-0.0429 -0.0127,0 -0.0437,0.0384 -0.0688,0.0855 m 0.75909,-0.0524 c 0.35771,0.007 0.94324,0.007 1.30095,0 0.35772,-0.007 0.0648,-0.0135 -0.65061,-0.0135 -0.71543,0 -1.00806,0.006 -0.65034,0.0135 m 45.349577,0 c -0.0114,0.0183 0.1315,0.0278 0.31724,0.0212 0.5924,-0.0209 0.6604,-0.0392 0.17489,-0.0468 -0.2593,-0.004 -0.48075,0.008 -0.49213,0.0257 m 4.54792,-5.3e-4 c 0.12806,0.009 0.3265,0.009 0.44106,0 0.1143,-0.009 0.01,-0.0164 -0.23309,-0.0164 -0.24263,2.6e-4 -0.33603,0.008 -0.20797,0.0164 m 4.25556,2.6e-4 c 0.14023,0.009 0.35851,0.009 0.48498,-2.6e-4 0.12647,-0.009 0.0116,-0.0161 -0.25506,-0.0159 -0.26696,0 -0.37041,0.007 -0.22992,0.0161 m -51.463037,0.086 c 0.0423,0.0109 0.11191,0.0109 0.15425,0 0.0423,-0.0111 0.008,-0.0204 -0.0773,-0.0204 -0.0849,0 -0.11959,0.009 -0.077,0.0204 m 46.737057,0.24157 c -0.003,0.0405 -0.0164,0.1098 -0.0304,0.15425 -0.0241,0.0765 -0.0228,0.0767 0.0249,0.002 0.0278,-0.0431 0.0415,-0.11245 0.0307,-0.15425 -0.018,-0.0683 -0.0206,-0.0685 -0.0251,-0.002 m -45.52659,0.27781 c 0.0437,0.0598 0.0976,0.10954 0.12012,0.11007 0.0222,7.9e-4 -0.006,-0.0482 -0.063,-0.10875 -0.13203,-0.14075 -0.15902,-0.14128 -0.0571,-10e-4 m 14.56884,0.19315 c -0.072,0.13441 -0.0572,0.17198 0.023,0.0577 0.0389,-0.0556 0.0603,-0.11113 0.0476,-0.12383 -0.0127,-0.0127 -0.0445,0.0172 -0.0706,0.0662 m -14.15865,0.7784 c 0,0.0363 0.0198,0.0662 0.0439,0.0662 0.0243,0 0.0442,-0.0299 0.0442,-0.0662 0,-0.0365 -0.0198,-0.0661 -0.0442,-0.0661 -0.0241,0 -0.0439,0.0296 -0.0439,0.0661 m 30.42708,0.17119 c 0,0.01 0.0585,0.0257 0.12991,0.0362 0.0714,0.0106 0.11986,0.003 0.10769,-0.0169 -0.022,-0.0354 -0.2376,-0.0529 -0.2376,-0.0193 m 29.30155,0.0288 c -0.0188,0.0302 0.0145,0.0357 0.0966,0.0159 0.16881,-0.0405 0.18495,-0.0616 0.0466,-0.0616 -0.0632,0 -0.12779,0.0206 -0.14314,0.0458 m -46.58657,0.12832 c -0.031,0.0577 -0.0421,1.00938 -0.0344,2.8993 l 0.0119,2.813577 0.0106,-2.818867 c 0.01,-2.55138 0.0175,-2.82628 0.0836,-2.8993 0.0413,-0.0455 0.0516,-0.0807 0.0236,-0.0807 -0.027,0 -0.0699,0.0386 -0.0953,0.086 m 0.99748,0.002 c 0.0206,0.0606 0.0376,1.37319 0.0376,2.91703 0,1.54384 0.0148,2.797967 0.0331,2.786587 0.0738,-0.0455 0.0357,-5.630597 -0.0392,-5.725847 -0.0669,-0.0852 -0.068,-0.0847 -0.0315,0.0222 m -11.51785,1.96215 c 0,1.04299 0.006,1.46341 0.013,0.93424 0.007,-0.52916 0.007,-1.38244 0,-1.89627 -0.007,-0.51382 -0.013,-0.0807 -0.013,0.96203 m 49.39693,-1.44648 c -0.0868,0.0894 -0.1487,0.17225 -0.13732,0.18362 0.0116,0.0114 0.0259,0.0124 0.032,0.002 0.006,-0.0106 0.0794,-0.0931 0.16298,-0.18388 0.19659,-0.21325 0.14923,-0.21484 -0.0577,-0.002 m 3.45546,-0.0415 c 0,0.0217 0.054,0.0876 0.12012,0.14658 0.0878,0.0783 0.10266,0.0833 0.055,0.0188 -0.10345,-0.1405 -0.17515,-0.20823 -0.17515,-0.16537 m -43.8105,0.17198 c -0.037,0.0886 -0.0572,0.17119 -0.0447,0.18362 0.0124,0.0124 0.0227,0.0119 0.0227,-0.001 0,-0.0132 0.0299,-0.0958 0.0667,-0.18362 0.0368,-0.0878 0.0569,-0.1598 0.0447,-0.1598 -0.0122,0 -0.0524,0.0725 -0.0894,0.16113 m -1.92935,0.13467 c 0.0548,0.0103 0.14394,0.0103 0.19844,0 0.0548,-0.0106 0.0101,-0.0193 -0.0992,-0.0193 -0.10901,0 -0.15372,0.009 -0.0992,0.0193 m 14.72909,0 c 0.0548,0.0106 0.13414,0.0101 0.17648,-7.9e-4 0.0421,-0.0111 -0.003,-0.0199 -0.0998,-0.0193 -0.0971,5.3e-4 -0.1315,0.01 -0.0767,0.0201 m 5.402,5.3e-4 c 0.0669,0.0101 0.16615,0.01 0.22039,-8e-4 0.0542,-0.0103 -5.3e-4,-0.0188 -0.1217,-0.0182 -0.12145,2.6e-4 -0.16563,0.009 -0.0987,0.019 m 5.04851,-5.3e-4 c 0.0545,0.0103 0.14393,0.0103 0.19844,0 0.0545,-0.0106 0.01,-0.0193 -0.0992,-0.0193 -0.10927,0 -0.15372,0.009 -0.0992,0.0193 m 18.78594,0 c 0.0548,0.0106 0.13415,0.0101 0.17648,-7.9e-4 0.0421,-0.0111 -0.003,-0.0199 -0.0998,-0.0193 -0.0971,5.3e-4 -0.1315,0.01 -0.0767,0.0201 m 6.32752,-8e-4 c 0.0423,0.0111 0.11191,0.0111 0.15425,0 0.0423,-0.0111 0.008,-0.0201 -0.0773,-0.0201 -0.0849,0 -0.11959,0.009 -0.077,0.0201 m 0.51805,0.0558 c 0.0363,0.0246 0.10425,0.045 0.15055,0.0453 0.11298,0.001 0.0778,-0.0243 -0.0844,-0.0606 -0.0966,-0.0214 -0.11457,-0.0175 -0.0662,0.0153 m -42.88711,0.0707 c -0.0841,0.0675 -0.0841,0.0677 0.003,0.0278 0.0484,-0.0222 0.11774,-0.0516 0.15425,-0.0651 0.0572,-0.0212 0.0569,-0.0249 -0.003,-0.0281 -0.0378,-0.002 -0.10716,0.0275 -0.15425,0.0654 m 16.47296,0.0196 c -0.0606,0.0474 -0.0886,0.0865 -0.0619,0.0871 0.0265,5.3e-4 0.0841,-0.0386 0.12805,-0.0871 0.10055,-0.11112 0.0759,-0.11112 -0.0661,0 m 18.91771,-0.0222 c -0.0606,0.0347 -0.0905,0.0632 -0.0661,0.0632 0.0241,0 0.0937,-0.0286 0.15426,-0.0632 0.0606,-0.0347 0.0905,-0.063 0.0661,-0.063 -0.0243,0 -0.0937,0.0283 -0.15426,0.063 m -41.54105,0.0691 c -0.0394,0.0736 -0.0757,0.0857 -0.18892,0.0635 -0.10477,-0.0206 -0.12356,-0.0159 -0.0741,0.0185 0.11642,0.0812 0.24739,0.0537 0.30057,-0.0627 0.0606,-0.13282 0.0312,-0.1479 -0.0376,-0.0193 m 21.39527,0.13494 c -0.004,0.0638 -0.0164,0.18283 -0.0286,0.26458 l -0.022,0.14896 0.0466,-0.14816 c 0.0254,-0.0812 0.0384,-0.20029 0.0286,-0.26459 l -0.018,-0.11641 -0.007,0.11562 m -25.15688,-0.0201 c -0.0415,0.0415 -0.0368,0.28893 0.005,0.26326 0.0333,-0.0209 0.0704,-0.29263 0.0397,-0.29263 -0.008,0 -0.0286,0.0132 -0.045,0.0294 m -0.0294,0.5633 c 0,0.0593 0.0177,0.11853 0.0389,0.13176 0.0214,0.0132 0.0365,-0.0352 0.0336,-0.10768 -0.006,-0.15716 -0.0725,-0.17912 -0.0725,-0.0241 m 18.03903,0.14314 c -0.002,0.0532 0.0167,0.10901 0.041,0.12409 0.0521,0.0323 0.0521,-0.0111 0,-0.13229 -0.0365,-0.0852 -0.0381,-0.0849 -0.041,0.008 m 35.65473,0.0468 c 0.0415,0.17304 0.0609,0.17886 0.0609,0.0183 0,-0.0767 -0.0201,-0.13944 -0.045,-0.13944 -0.0267,0 -0.0331,0.0492 -0.0159,0.12118 m -62.29271,-0.0577 c 0,0.0111 0.0945,0.0651 0.20955,0.11959 0.29395,0.13891 0.31035,0.14394 0.19923,0.0622 -0.10927,-0.081 -0.40878,-0.21405 -0.40878,-0.18177 m 21.58576,1.96056 c 0,1.089287 0.0146,1.971147 0.0323,1.960297 0.0418,-0.0259 0.0408,-3.940437 -0.001,-3.940437 -0.0172,0 -0.0312,0.89112 -0.0312,1.98014 m 13.4239,-1.91981 c 0.0587,0.0722 0.22411,0.1815 0.22411,0.14816 0,-0.008 -0.0646,-0.0627 -0.14341,-0.12038 -0.0886,-0.0648 -0.11932,-0.0754 -0.0807,-0.0278 m 22.01836,0.16034 c 0,0.0849 0.009,0.11959 0.0201,0.077 0.0111,-0.0423 0.0111,-0.11192 0,-0.15425 -0.0111,-0.0423 -0.0201,-0.008 -0.0201,0.0773 m -29.21419,0.42809 c 0.0238,0.62918 0.0481,0.67681 0.0516,0.10107 0.002,-0.25479 -0.0135,-0.48868 -0.0333,-0.5199 -0.0198,-0.0312 -0.0281,0.15716 -0.0183,0.41883 m 7.55888,-0.3601 c 0.0402,0.041 0.0968,0.0664 0.12647,0.0566 0.0294,-0.01 -0.003,-0.0434 -0.073,-0.0743 -0.11827,-0.0529 -0.12144,-0.0519 -0.0534,0.0177 m -25.14203,-0.003 c 0,0.0349 0.31962,0.15928 0.34475,0.13415 0.0124,-0.0124 0.0119,-0.0228 -10e-4,-0.0228 -0.0132,0 -0.0958,-0.0299 -0.18362,-0.0667 -0.0878,-0.0368 -0.1598,-0.0569 -0.1598,-0.0447 m 42.99479,0.0894 c 0,0.0606 0.0172,0.11033 0.0381,0.11033 0.0209,0 0.0283,-0.0497 0.0167,-0.11033 -0.0114,-0.0606 -0.0286,-0.11033 -0.0378,-0.11033 -0.009,0 -0.0169,0.0497 -0.0169,0.11033 m -56.290107,0.0661 c 0.0167,0.027 0.35402,0.0442 0.86519,0.0442 0.54716,0 0.82841,-0.0153 0.81042,-0.0442 -0.0164,-0.027 -0.35401,-0.0442 -0.86492,-0.0442 -0.54743,0 -0.82841,0.0154 -0.81069,0.0442 m 37.107817,0.0643 c 0,0.0177 0.0397,0.0825 0.0881,0.1442 0.0487,0.0617 0.0884,0.0976 0.0884,0.0799 0,-0.0175 -0.0397,-0.0823 -0.0884,-0.14419 -0.0484,-0.0616 -0.0881,-0.0976 -0.0881,-0.0799 m 23.03436,0.35454 c 0,0.21829 0.007,0.31327 0.0167,0.21088 0.009,-0.1024 0.009,-0.28099 2.6e-4,-0.39688 -0.009,-0.11589 -0.0167,-0.0323 -0.0169,0.186 m 5.32977,0.16008 c -0.005,0.30612 -0.0196,0.62362 -0.0315,0.70538 l -0.022,0.14896 0.0452,-0.14367 c 0.0249,-0.0789 0.0392,-0.39635 0.0315,-0.70538 l -0.0138,-0.56224 -0.01,0.55695 m 1.04881,0.0606 c 0,0.35957 0.0156,0.54663 0.0439,0.52916 0.0254,-0.0156 0.0442,-0.24209 0.0442,-0.52916 0,-0.28708 -0.0188,-0.51356 -0.0442,-0.52917 -0.0283,-0.0177 -0.0439,0.16933 -0.0439,0.52917 m -4.09813,-0.0331 c 0.002,0.2122 0.0204,0.42545 0.041,0.47387 0.0246,0.0569 0.0392,-0.0799 0.041,-0.38576 0.002,-0.28866 -0.014,-0.47413 -0.041,-0.47413 -0.0262,0 -0.0429,0.1561 -0.041,0.38602 m -20.72158,0.10742 c -0.003,0.1868 0.008,0.34846 0.0265,0.35983 0.0183,0.0114 0.0275,-0.0918 0.0206,-0.22886 -0.0214,-0.43074 -0.0402,-0.4826 -0.0471,-0.13097 m -37.48405,0.25638 c 0.002,0.0363 0.0196,0.11562 0.0389,0.17621 l 0.0354,0.11033 0.004,-0.11033 c 0.002,-0.0606 -0.0156,-0.13996 -0.0392,-0.17621 -0.0378,-0.059 -0.0423,-0.059 -0.0389,0 m -1.10622,0.3085 c 0,0.20135 0.0127,0.26697 0.0429,0.22067 0.0236,-0.0365 0.0426,-0.13573 0.0426,-0.22067 0,-0.0849 -0.019,-0.18415 -0.0426,-0.22039 -0.0302,-0.0463 -0.0429,0.0193 -0.0429,0.22039 m 11.41994,0.19024 c 0,0.008 0.0643,0.0722 0.14314,0.1434 l 0.14341,0.12939 -0.12965,-0.14314 c -0.12065,-0.13362 -0.1569,-0.16378 -0.1569,-0.12965 m -10.28171,0.0635 c -0.0233,0.11192 -0.019,0.26961 0.007,0.25347 0.0331,-0.0204 0.0508,-0.28654 0.0193,-0.28654 -0.0106,0 -0.0222,0.0148 -0.0262,0.0331 m 43.23424,0.10001 c -0.004,0.0492 0.0119,0.0778 0.0347,0.0635 0.0503,-0.0309 0.0556,-0.15266 0.007,-0.15266 -0.019,0 -0.0378,0.0402 -0.0415,0.0892 m -31.63362,0.0323 c -0.0196,0.1651 -0.0124,0.51356 0.0116,0.57441 0.0167,0.0418 0.0315,-0.0778 0.0333,-0.2659 0.002,-0.27305 -0.0262,-0.46885 -0.045,-0.30851 m -6.74132,0.42545 c -0.0222,0.0585 -0.0614,0.11906 -0.0871,0.13494 -0.0259,0.0159 -0.0468,0.0503 -0.0468,0.0765 0,0.0262 0.0362,0 0.0807,-0.0577 0.0857,-0.11192 0.15134,-0.25956 0.1151,-0.25956 -0.0119,0 -0.0397,0.0476 -0.0619,0.10583 m 50.55578,0.29104 c -0.0151,0.0243 0.0148,0.0442 0.0661,0.0442 0.0513,0 0.0812,-0.0198 0.0661,-0.0442 -0.0151,-0.0243 -0.0447,-0.0442 -0.0661,-0.0442 -0.0214,0 -0.0511,0.0198 -0.0661,0.0442 m -23.76117,0.0294 c -0.0161,0.0161 -0.0281,0.0707 -0.0265,0.12118 0.003,0.0847 0.006,0.0836 0.045,-0.0138 0.0431,-0.10795 0.0344,-0.16007 -0.0185,-0.10742 m -24.20937,0.0442 c -0.0471,0.0471 -0.0339,0.756437 0.0148,0.786337 0.0283,0.0175 0.0442,-0.12435 0.0442,-0.39423 0,-0.421737 -0.004,-0.447137 -0.059,-0.392107 m 25.15763,0.367497 c -0.003,0.23019 0.009,0.44186 0.0265,0.4699 0.018,0.0283 0.0267,-0.11059 0.0198,-0.3085 -0.0198,-0.554567 -0.0399,-0.624147 -0.0463,-0.1614 m -36.484717,-0.18785 c 0.20135,0.008 0.51885,0.008 0.70564,0 0.1868,-0.008 0.022,-0.0148 -0.36592,-0.0148 -0.38814,0 -0.54107,0.007 -0.33972,0.0148 m 28.054827,0.0995 c 0.0868,0.0564 0.18891,0.0564 0.15425,0 -0.0151,-0.0241 -0.0706,-0.0436 -0.12383,-0.0434 -0.0786,5.3e-4 -0.0844,0.009 -0.0304,0.0434 m 0.59532,0 c -0.0323,0.0521 0.0109,0.0521 0.13229,0 0.0849,-0.0365 0.0847,-0.0378 -0.008,-0.041 -0.0532,-0.002 -0.10901,0.0169 -0.12383,0.041 m 28.66311,0 c 0.0151,0.0243 0.0572,0.0442 0.0934,0.0442 0.0365,0 0.054,-0.0199 0.0389,-0.0442 -0.0151,-0.0241 -0.0571,-0.0439 -0.0934,-0.0439 -0.0365,0 -0.054,0.0198 -0.0389,0.0439 m 8.16478,0.21299 c -0.0402,0.0444 -0.073,0.0971 -0.073,0.11695 0,0.0201 0.0397,-0.009 0.0884,-0.0654 0.0484,-0.0558 0.0881,-0.10848 0.0881,-0.11695 0,-0.0331 -0.0336,-0.0116 -0.10345,0.0654 m -58.25915,0.71623 c -0.12144,0.028 -0.11695,0.031 0.055,0.0357 0.1868,0.005 0.2368,-0.0127 0.13229,-0.0479 -0.0304,-0.0103 -0.11456,-0.005 -0.18732,0.0122 m 5.8203,-0.002 c -0.0161,0.0262 0.0558,0.0434 0.1815,0.0434 0.24025,0 0.24342,-0.0243 0.008,-0.0614 -0.0897,-0.014 -0.17515,-0.006 -0.18997,0.018 m 15.23603,-7.9e-4 -0.11033,0.0354 0.12145,0.004 c 0.0667,0.003 0.12118,-0.0153 0.12118,-0.0397 0,-0.0241 -0.005,-0.0421 -0.0111,-0.0397 -0.006,0.002 -0.0606,0.0204 -0.12118,0.0397 m 0.35269,0.01 c 0,0.0487 0.1217,0.0434 0.15266,-0.007 0.0143,-0.0228 -0.0143,-0.0384 -0.0635,-0.0347 -0.0489,0.004 -0.0892,0.0225 -0.0892,0.0415 m 9.61337,-0.01 c -0.0916,0.0294 -0.0765,0.036 0.0881,0.0392 0.14314,0.003 0.17992,-0.008 0.13229,-0.0392 -0.0746,-0.0481 -0.0701,-0.0481 -0.22039,0 m 0.33073,0 c -0.0151,0.0243 0.002,0.0442 0.0389,0.0442 0.0362,0 0.0783,-0.0198 0.0934,-0.0442 0.0148,-0.0241 -0.003,-0.0439 -0.0389,-0.0439 -0.0365,0 -0.0786,0.0198 -0.0934,0.0439 m 18.98385,0.003 c 0,0.0228 0.0627,0.0413 0.13944,0.0413 0.16271,0 0.15319,-0.0294 -0.0193,-0.0606 -0.0661,-0.0119 -0.12013,-0.003 -0.12013,0.0193 m 0.30851,0.007 c 0,0.0487 0.12171,0.0434 0.15266,-0.007 0.0143,-0.0228 -0.0143,-0.0384 -0.0635,-0.0347 -0.0489,0.004 -0.0892,0.0225 -0.0892,0.0415 m 5.79888,-0.01 c -0.0693,0.0299 -0.0503,0.0386 0.0881,0.0405 0.12938,0.002 0.15875,-0.009 0.11033,-0.0405 -0.0773,-0.0497 -0.0823,-0.0497 -0.19844,0 m -30.48159,0.0318 c 0.0669,0.01 0.16616,0.01 0.2204,-5.3e-4 0.0542,-0.0106 -5.3e-4,-0.0188 -0.12171,-0.0185 -0.12144,2.6e-4 -0.16563,0.009 -0.0987,0.0191 m -15.34636,4.36668 c 0.16351,0.008 0.43153,0.008 0.59531,0 0.16351,-0.008 0.0296,-0.0154 -0.29766,-0.0154 -0.32755,0 -0.46143,0.007 -0.29765,0.0154 m -0.4064,0.0966 c -0.0942,0.17621 -0.0601,11.61785 0.0349,11.70411 0.0445,0.0399 0.109,0.0725 0.1434,0.0722 0.0344,-2.7e-4 0.013,-0.0257 -0.0476,-0.0564 l -0.11033,-0.0558 -0.0111,-5.78909 c -0.008,-3.94044 0.003,-5.81633 0.0347,-5.87454 0.0251,-0.0471 0.036,-0.0857 0.0238,-0.0857 -0.0122,0 -0.0426,0.0384 -0.0677,0.0852 m 19.67997,0.54319 c -0.0489,0.0545 -0.10504,0.12885 -0.12435,0.16536 -0.0373,0.0701 -0.027,0.0606 0.1516,-0.1434 0.0585,-0.0667 0.0963,-0.12118 0.0841,-0.12118 -0.0122,0 -0.0622,0.0447 -0.11139,0.0992 m -5.01914,0.91493 c -0.0172,0.0278 0.0876,0.0442 0.2839,0.0442 0.17806,0 0.31141,-0.0188 0.31141,-0.0442 0,-0.0249 -0.12409,-0.0439 -0.28416,-0.0439 -0.15611,0 -0.29634,0.0198 -0.31115,0.0439 m 0.81888,0.0746 c 0.01,0.11457 0.0788,0.21167 0.082,0.11562 0.002,-0.0532 -0.0169,-0.109 -0.041,-0.12409 -0.0243,-0.0148 -0.0429,-0.0111 -0.041,0.008 m 4.01479,0.0222 c -0.008,0.11298 0.1606,0.37201 0.29475,0.45324 l 0.11906,0.0722 -0.11271,-0.1016 c -0.12912,-0.11642 -0.2421,-0.28681 -0.27411,-0.41222 -0.0172,-0.0677 -0.023,-0.0704 -0.027,-0.0116 m -35.029247,0.28866 c 0.15161,0.009 0.39952,0.009 0.551127,0 0.15161,-0.008 0.0275,-0.0156 -0.275697,-0.0156 -0.30294,0 -0.42703,0.007 -0.27543,0.0156 m 2.307427,0.27067 c 0.0952,0.0622 0.48578,0.19235 0.50827,0.16986 0.0101,-0.0103 -0.0759,-0.0495 -0.19156,-0.0873 -0.11536,-0.0381 -0.2495,-0.0823 -0.29818,-0.0984 -0.0717,-0.0241 -0.0751,-0.0212 -0.0185,0.0159 m 33.37427,0.0632 c 0.0198,0.0198 0.12303,0.0294 0.2294,0.0214 l 0.19341,-0.0148 -0.2294,-0.0212 c -0.1262,-0.0116 -0.21325,-0.005 -0.19341,0.0145 m -39.051697,1.1549 c 0,0.1696 0.008,0.23363 0.0177,0.14235 0.009,-0.0916 0.009,-0.23045 -5.3e-4,-0.30877 -0.01,-0.0783 -0.0175,-0.003 -0.0172,0.16642 m 45.361487,-0.11033 c -0.0886,0.0283 -0.0929,0.0354 -0.022,0.0365 0.0484,8e-4 0.12779,-0.0156 0.17621,-0.0365 0.11245,-0.0484 -0.003,-0.0484 -0.15425,0 m 18.65312,0.002 c -0.0744,0.0254 -0.0384,0.0291 0.11033,0.0122 0.12118,-0.014 0.2286,-0.0331 0.23866,-0.0421 0.0349,-0.031 -0.23892,-0.007 -0.34899,0.0299 m 1.41102,-0.0291 c 0,0.009 0.0585,0.0257 0.13018,0.036 0.0714,0.0106 0.11985,0.003 0.10742,-0.0169 -0.0217,-0.0354 -0.2376,-0.0526 -0.2376,-0.019 m -51.59375,0.1151 c 0.15082,0.0484 0.2667,0.0484 0.15452,0 -0.0487,-0.0206 -0.12806,-0.0373 -0.17648,-0.0365 -0.0709,10e-4 -0.0667,0.008 0.022,0.0365 m 41.51763,0 c -0.0556,0.0241 -0.0638,0.0381 -0.022,0.0381 0.0363,0 0.10583,-0.0172 0.15425,-0.0381 0.0556,-0.0238 0.0638,-0.0378 0.022,-0.0378 -0.0363,0 -0.10583,0.0172 -0.15425,0.0378 m -32.02755,0.0328 c 0.16272,0.008 0.44053,0.008 0.61727,0 0.17701,-0.008 0.0439,-0.0153 -0.29554,-0.0153 -0.33972,0 -0.48445,0.007 -0.32173,0.0153 m 5.86502,0 c 0.16245,0.008 0.44026,0.008 0.61727,0 0.17701,-0.008 0.0439,-0.0153 -0.2958,-0.0153 -0.33946,0 -0.48419,0.007 -0.32147,0.0153 m 5.84464,2.6e-4 c 0.32147,0.007 0.8472,0.007 1.16867,0 0.32147,-0.008 0.0585,-0.0138 -0.5842,-0.0138 -0.64294,0 -0.90567,0.006 -0.58447,0.0138 m 3.90076,-2.6e-4 c 0.16271,0.008 0.44053,0.008 0.61727,0 0.177,-0.008 0.0439,-0.0153 -0.29554,-0.0153 -0.33973,0 -0.48445,0.007 -0.32173,0.0153 m 13.74007,0 c 0.1524,0.009 0.39053,0.008 0.52917,-2.7e-4 0.13838,-0.009 0.0135,-0.0156 -0.27755,-0.0156 -0.29104,0 -0.40428,0.007 -0.25162,0.0159 m -28.31253,0.0595 c 0.0421,0.054 0.0574,0.74242 0.0664,2.97656 l 0.0116,2.90645 0.0109,-2.91624 c 0.01,-2.73208 0.006,-2.91967 -0.0667,-2.97656 -0.0683,-0.0534 -0.0709,-0.0524 -0.0222,0.01 m 14.14357,4.22937 c 0,2.2434 0.005,3.16124 0.0119,2.0394 0.007,-1.12183 0.007,-2.95724 0,-4.07908 -0.007,-1.12157 -0.0119,-0.20373 -0.0119,2.03968 m 29.09803,-3.89484 c 0.0545,0.0646 0.0709,0.12805 0.0503,0.19314 -0.0209,0.0656 -0.0151,0.0871 0.018,0.0667 0.0802,-0.0495 0.0558,-0.18203 -0.0503,-0.27172 l -0.0992,-0.0841 0.0812,0.096 m -52.18484,0.33443 c 0.10769,0.11377 0.2032,0.19976 0.2122,0.19076 0.0177,-0.0177 -0.1315,-0.17198 -0.30163,-0.31115 -0.0585,-0.0479 -0.0183,0.006 0.0894,0.12039 m -5.35781,-5.3e-4 -0.12964,0.1434 0.1434,-0.12964 c 0.0789,-0.0712 0.1434,-0.13547 0.1434,-0.14314 0,-0.0341 -0.0365,-0.004 -0.15716,0.12938 m 33.07556,0.25374 c -0.0696,0.0728 -0.10795,0.13123 -0.0855,0.12964 0.0389,-0.002 0.26618,-0.26194 0.2294,-0.26194 -0.009,0 -0.0741,0.0595 -0.14394,0.1323 m -0.36459,0.4572 c -0.0542,0.0788 -0.0984,0.1598 -0.0984,0.17991 0,0.0201 0.0508,-0.0381 0.11245,-0.12911 0.0619,-0.091 0.10609,-0.17198 0.0984,-0.17992 -0.008,-0.008 -0.0585,0.0503 -0.11245,0.12912 m -28.49563,0.14657 c 0.0598,0.041 0.12356,0.0955 0.14129,0.12118 0.0222,0.032 0.0325,0.031 0.0331,-0.003 5.3e-4,-0.0275 -0.0481,-0.082 -0.10795,-0.12118 -0.14499,-0.095 -0.20584,-0.0918 -0.0664,0.003 m -3.22051,0.15955 c -0.0606,0.0548 -0.1389,0.13838 -0.17409,0.186 -0.0354,0.0479 0.0193,0.008 0.12118,-0.0873 0.16721,-0.15743 0.20743,-0.20346 0.17436,-0.19923 -0.006,7.9e-4 -0.0606,0.046 -0.12145,0.10054 m -7.386097,0.29501 c 0.0148,0.0241 0.0569,0.0439 0.0934,0.0439 0.0362,0 0.0537,-0.0198 0.0389,-0.0439 -0.0151,-0.0243 -0.0572,-0.0442 -0.0934,-0.0442 -0.0365,0 -0.054,0.0198 -0.0389,0.0442 m 57.878127,0.40508 c 5.3e-4,0.0561 0.019,0.13097 0.0415,0.16642 0.0294,0.0466 0.0394,0.0249 0.0365,-0.0789 -0.005,-0.16166 -0.0791,-0.24527 -0.078,-0.0876 m -19.33416,0.28152 c -0.0161,0.0646 -0.0209,0.12594 -0.0106,0.13626 0.0103,0.0106 0.0323,-0.0339 0.0484,-0.0984 0.0161,-0.0646 0.0209,-0.12594 0.0106,-0.13653 -0.0103,-0.0103 -0.032,0.0341 -0.0484,0.0987 m -25.55002,0.041 c -5.3e-4,0.0484 0.0159,0.1278 0.0368,0.17622 0.0482,0.11244 0.0482,-0.003 0,-0.15426 -0.0286,-0.0886 -0.0357,-0.0929 -0.0368,-0.022 m 25.48599,0.29396 c -0.003,0.0405 -0.0167,0.1098 -0.0307,0.15425 -0.0238,0.0767 -0.0227,0.0767 0.0251,0.002 0.0278,-0.0434 0.0415,-0.11271 0.0304,-0.15452 -0.018,-0.0683 -0.0204,-0.0683 -0.0249,-0.002 m -35.59493,0.44582 c 0.0587,0.0661 0.12462,0.12013 0.14632,0.12013 0.0429,0 -0.0249,-0.0717 -0.16537,-0.17516 -0.0646,-0.0476 -0.0595,-0.0328 0.019,0.055 m 55.47757,-0.0921 c 0,0.0122 0.0397,0.068 0.0881,0.12383 0.0487,0.0561 0.0884,0.082 0.0884,0.0577 0,-0.0241 -0.0397,-0.0799 -0.0884,-0.12383 -0.0484,-0.0439 -0.0881,-0.0699 -0.0881,-0.0577 m -46.83046,0.2159 c 2.7e-4,0.0828 0.0175,0.17754 0.0384,0.21035 0.0238,0.0376 0.0341,-0.008 0.0275,-0.12251 -0.0124,-0.22383 -0.0669,-0.29633 -0.0659,-0.0878 m 26.87188,0.61357 c 0,0.35163 0.007,0.49557 0.0153,0.31962 0.008,-0.17568 0.008,-0.46355 0,-0.63923 -0.008,-0.17595 -0.0153,-0.032 -0.0153,0.31961 m 23.83923,-0.41198 c 0.0362,0.0122 0.14049,0.0503 0.23151,0.0844 0.0908,0.0341 0.16536,0.0526 0.16536,0.0413 0,-0.0341 -0.313,-0.15505 -0.39131,-0.15135 -0.0595,0.003 -0.0603,0.007 -0.006,0.0257 m -49.0691,0.39 c 5.3e-4,0.0968 0.01,0.1315 0.0201,0.0765 0.0103,-0.0548 0.0101,-0.13414 -10e-4,-0.17621 -0.0111,-0.0423 -0.0196,0.003 -0.0191,0.0998 m -1.61502,0.34158 c -0.0333,0.12488 -0.036,0.36459 -0.003,0.33231 0.0259,-0.0259 0.0669,-0.43153 0.0437,-0.43153 -0.007,0 -0.0257,0.0447 -0.0402,0.0992 m 51.97476,-0.0109 c 0.0619,0.0484 0.12673,0.0881 0.14419,0.0881 0.0177,0 -0.0182,-0.0397 -0.0799,-0.0881 -0.0617,-0.0487 -0.12647,-0.0884 -0.1442,-0.0884 -0.0177,0 0.0183,0.0397 0.0799,0.0884 m -61.83631,-0.0241 c 0,0.0177 0.0397,0.0825 0.0884,0.14419 0.0484,0.0616 0.0881,0.0976 0.0881,0.0802 0,-0.0177 -0.0397,-0.0825 -0.0881,-0.14419 -0.0487,-0.0617 -0.0884,-0.0976 -0.0884,-0.0802 m 1.81187,0.15636 c 0.001,0.0362 0.0196,0.10584 0.0402,0.15426 l 0.0381,0.0881 0.002,-0.0881 c 0.001,-0.0484 -0.0169,-0.11801 -0.0405,-0.15426 -0.0378,-0.059 -0.0423,-0.059 -0.0402,0 m 9.41652,1.17026 c -0.0153,0.0394 -0.0259,0.10477 -0.0238,0.14525 0.002,0.0405 0.0212,0.0148 0.0426,-0.0566 0.0415,-0.13917 0.027,-0.20796 -0.0188,-0.0886 m -9.37022,0.0497 c -0.003,0.0526 -0.0175,0.13203 -0.0315,0.17648 -0.0238,0.0765 -0.0225,0.0765 0.0251,0.002 0.0275,-0.0434 0.0418,-0.12277 0.0312,-0.17648 -0.0188,-0.0979 -0.0188,-0.0979 -0.0249,-0.002 m 59.17989,0.24263 c -0.004,0.0889 -0.0188,0.1979 -0.0328,0.24235 -0.0238,0.0762 -0.0225,0.0762 0.0246,0.003 0.0275,-0.0429 0.0423,-0.15187 0.0328,-0.24262 l -0.0172,-0.16457 -0.007,0.16193 m -22.32052,0.0831 c 0,0.0135 0.0495,0.0918 0.11007,0.17409 0.0608,0.082 0.10953,0.13071 0.10874,0.10769 -0.002,-0.0442 -0.21828,-0.32332 -0.21881,-0.28178 m 3.99547,0.11139 c -0.0415,0.10795 -0.0325,0.11853 0.0394,0.0468 0.0749,-0.0749 0.0844,-0.11642 0.0267,-0.11642 -0.0217,0 -0.0516,0.0312 -0.0661,0.0696 m -5.40676,0.38655 c 0,0.0172 0.0696,0.13203 0.15452,0.25533 0.0847,0.12329 0.15425,0.20717 0.15425,0.18626 0,-0.0209 -0.0696,-0.13599 -0.15425,-0.25532 -0.0849,-0.11933 -0.15452,-0.2032 -0.15452,-0.18627 m 18.87379,0.66305 c 0,0.65828 0.0617,0.69638 0.081,0.05 0.01,-0.32597 -0.002,-0.50826 -0.0331,-0.52758 -0.0336,-0.0206 -0.0479,0.12409 -0.0479,0.47757 m -58.814707,-0.16032 c 0.18786,0.008 0.49557,0.008 0.68342,0 0.18812,-0.008 0.0341,-0.0151 -0.34158,-0.0151 -0.37597,0 -0.52969,0.007 -0.34184,0.0151 m 33.756867,-0.002 c 0.055,0.0103 0.1344,0.0101 0.17647,-0.001 0.0421,-0.0111 -0.003,-0.0196 -0.0998,-0.019 -0.0971,5.3e-4 -0.13149,0.01 -0.0767,0.0201 m -24.16995,0.068 c 0.0265,0.0426 0.81492,0.0421 0.88212,-7.9e-4 0.028,-0.0177 -0.16351,-0.0323 -0.42571,-0.0323 -0.2622,0 -0.46752,0.0148 -0.45641,0.0331 m 13.54799,0.002 c 0.0193,0.0193 0.22172,0.0291 0.45006,0.022 l 0.41486,-0.0132 -0.44979,-0.0217 c -0.24765,-0.0119 -0.43444,-0.006 -0.41513,0.013 m 19.81994,-0.002 c 0.0672,0.0429 0.85566,0.0434 0.88185,7.9e-4 0.0114,-0.0183 -0.1942,-0.0331 -0.4564,-0.0331 -0.26194,0 -0.4535,0.0146 -0.42545,0.0323 m -9.68349,0.0209 c 0.0545,0.0103 0.14394,0.0103 0.19844,0 0.0545,-0.0106 0.01,-0.0193 -0.0992,-0.0193 -0.10927,0 -0.15372,0.009 -0.0992,0.0193 m 27.89211,5.3e-4 c 0.0669,0.01 0.16616,0.01 0.2204,-7.9e-4 0.0542,-0.0103 -5.3e-4,-0.0188 -0.12171,-0.0183 -0.12144,2.6e-4 -0.16563,0.009 -0.0987,0.0191 m 0.83794,0 c 0.0669,0.01 0.16615,0.01 0.22039,-7.9e-4 0.0542,-0.0103 -5.3e-4,-0.0188 -0.12197,-0.0183 -0.12118,2.6e-4 -0.16563,0.009 -0.0984,0.0191 m -58.19802,0.046 c -0.0243,0.018 -0.0733,0.0722 -0.10901,0.12065 -0.0479,0.0651 -0.0333,0.0603 0.0553,-0.0188 0.10795,-0.096 0.14076,-0.13679 0.10875,-0.13494 -0.006,5.3e-4 -0.0307,0.0153 -0.055,0.0331 m 30.46544,0.40719 c 0,0.2548 0.007,0.35904 0.0161,0.23151 0.009,-0.12726 0.009,-0.33549 0,-0.46302 -0.009,-0.12726 -0.0161,-0.023 -0.0161,0.23151 m -8.0854,0.29501 c -5.3e-4,0.0532 0.019,0.10901 0.0434,0.12409 0.0561,0.0347 0.0561,-0.0675 0,-0.15451 -0.0347,-0.0537 -0.0429,-0.0479 -0.0434,0.0304 m 30.62473,0.28416 c -0.0728,0.045 -0.10239,0.0815 -0.0661,0.0807 0.0722,-0.001 0.24791,-0.11959 0.21722,-0.14632 -0.0103,-0.009 -0.0783,0.0206 -0.15107,0.0656 m -54.90105,0.0384 c -0.0849,0.0365 -0.0847,0.0378 0.008,0.041 0.0532,0.002 0.10901,-0.0169 0.12383,-0.041 0.0323,-0.0521 -0.0109,-0.0521 -0.13229,0 m -0.39688,0.0881 c -0.0849,0.0365 -0.0847,0.0381 0.008,0.041 0.0532,0.002 0.10901,-0.0167 0.12383,-0.041 0.0323,-0.0521 -0.0109,-0.0521 -0.1323,0 m 61.27327,0 c -0.091,0.0291 -0.0947,0.036 -0.0222,0.0392 0.0487,0.002 0.118,-0.0156 0.15452,-0.0392 0.0773,-0.05 0.0235,-0.05 -0.1323,0 m -62.088977,0.0881 -0.19843,0.031 0.2069,0.007 c 0.11377,0.004 0.21908,-0.0132 0.23416,-0.0376 0.0148,-0.0241 0.0111,-0.041 -0.008,-0.0373 -0.0196,0.003 -0.12515,0.0204 -0.23416,0.0373 m 8.770147,0.0124 c 0.0212,0.0212 0.0955,0.0315 0.1651,0.0227 0.11668,-0.0145 0.1135,-0.0175 -0.0386,-0.0386 -0.0947,-0.013 -0.1487,-0.006 -0.12647,0.0159 m 13.43316,-0.0116 c 0.0148,0.0238 0.0886,0.0434 0.16404,0.0434 0.16642,0 0.14975,-0.022 -0.0452,-0.0593 -0.091,-0.0172 -0.13547,-0.0114 -0.1188,0.0159 m 0.77126,-7.9e-4 -0.11007,0.0355 0.12118,0.004 c 0.0667,0.003 0.12118,-0.0154 0.12118,-0.0397 0,-0.0241 -0.005,-0.0421 -0.0109,-0.0397 -0.006,0.002 -0.0606,0.0204 -0.12144,0.0397 m 9.32656,0 -0.13229,0.0339 0.14076,0.005 c 0.0775,0.003 0.15293,-0.0146 0.16801,-0.0389 0.0302,-0.0487 0.0153,-0.0487 -0.17648,0 m 10.71563,0 c -0.0781,0.0336 -0.0744,0.0384 0.0331,0.041 0.0667,0.002 0.12144,-0.0167 0.12144,-0.041 0,-0.0516 -0.0339,-0.0516 -0.15452,0 m 17.51781,0.0312 c 0.0545,0.0106 0.14367,0.0106 0.19843,0 0.0545,-0.0106 0.01,-0.019 -0.0992,-0.019 -0.10928,0 -0.15399,0.008 -0.0992,0.019 m 0.70591,0 c 0.055,0.0106 0.1344,0.0103 0.17647,-7.9e-4 0.0421,-0.0111 -0.003,-0.0196 -0.0998,-0.0193 -0.0971,5.3e-4 -0.13149,0.01 -0.0767,0.0201" />
    <path
       inkscape:connector-curvature="0"
       style="display:block;fill:#00246d;fill-rule:evenodd;stroke:none;stroke-width:0.26458332"
       id="path2"
       d="m 67.19176,94.224893 c -0.10716,0.10901 -0.18495,0.19844 -0.17278,0.19844 0.0122,0 0.1098,-0.0894 0.21696,-0.19844 0.10716,-0.10901 0.18468,-0.19844 0.17251,-0.19844 -0.0119,0 -0.10954,0.0894 -0.21669,0.19844 m 15.91918,0.16801 c 0,0.008 0.0643,0.0722 0.14314,0.1434 l 0.1434,0.12965 -0.12964,-0.14341 c -0.12065,-0.13361 -0.1569,-0.16351 -0.1569,-0.12964 m -3.96875,1.46367 c 0.082,0.0606 0.16034,0.11007 0.17383,0.11007 0.0415,-5.3e-4 -0.23733,-0.21722 -0.28178,-0.21881 -0.0228,-7.9e-4 0.0257,0.0481 0.10795,0.10874 m -8.2886,0.11192 c -0.19923,0.17039 -0.15055,0.16907 0.0643,-0.002 0.0915,-0.0728 0.14896,-0.1315 0.12753,-0.13044 -0.0217,10e-4 -0.10795,0.0606 -0.19183,0.13229 m 8.79608,0.2839 c 0.0968,0.0847 0.19261,0.15399 0.21325,0.15452 0.0204,5.3e-4 -0.046,-0.0688 -0.14764,-0.15346 -0.23971,-0.20055 -0.29501,-0.20108 -0.0656,-0.001 m -9.2194,0.078 -0.12965,0.14341 0.14341,-0.12965 c 0.13361,-0.12065 0.16351,-0.1569 0.12938,-0.1569 -0.008,0 -0.072,0.0643 -0.14314,0.14314 m 19.54715,2.0836 c 0.13017,0.13335 0.25029,0.24262 0.26643,0.24262 0.0164,0 -0.078,-0.10927 -0.20981,-0.24262 -0.13176,-0.13335 -0.25162,-0.24236 -0.26644,-0.24236 -0.0148,0 0.0796,0.10901 0.20982,0.24236 m -5.50598,1.17977 c 0.0222,0.0222 0.0873,0.0331 0.14473,0.0241 0.0881,-0.014 0.082,-0.0201 -0.0405,-0.0405 -0.0876,-0.0145 -0.12886,-0.008 -0.10425,0.0164 m 1.63804,0.564357 c 0.15293,0.10372 0.23997,0.13388 0.13229,0.0458 -0.0606,-0.0495 -0.13018,-0.0902 -0.15425,-0.0905 -0.0243,0 -0.0146,0.0198 0.022,0.0447 m -9.72318,0.2622 c -0.0439,0.0487 -0.0656,0.0884 -0.0481,0.0884 0.0466,0 0.17225,-0.13282 0.14843,-0.15663 -0.0111,-0.0111 -0.0564,0.0196 -0.10027,0.0683 m 5.71182,-0.0619 c 0.002,0.0545 0.17225,0.25559 0.19632,0.23177 0.0106,-0.0106 -0.0296,-0.0759 -0.0894,-0.14525 -0.0595,-0.0696 -0.10768,-0.10848 -0.10689,-0.0865 m -20.683,0.72893 c -0.15373,0.13467 -0.15373,0.13493 -0.0124,0.0407 0.0781,-0.0519 0.15373,-0.11325 0.16801,-0.13626 0.0426,-0.0691 0.007,-0.0474 -0.15557,0.0955 m 9.39271,0.8546 c -0.10716,0.10901 -0.18495,0.19844 -0.17278,0.19844 0.0122,0 0.10954,-0.0894 0.2167,-0.19844 0.10715,-0.10927 0.18494,-0.19844 0.17277,-0.19844 -0.0122,0 -0.10954,0.0892 -0.21669,0.19844 m 1.46102,2.14656 c -0.0574,0.0709 -0.0958,0.13732 -0.0852,0.14817 0.0106,0.0106 0.0643,-0.0415 0.11933,-0.11589 0.12938,-0.17489 0.10213,-0.20029 -0.0341,-0.0323 m 20.42319,1.84415 c 0,0.10927 0.008,0.15372 0.0191,0.0992 0.0106,-0.0545 0.0106,-0.14393 0,-0.19844 -0.0106,-0.0545 -0.0191,-0.0101 -0.0191,0.0992 m -21.20688,0.52917 c 0,0.23045 0.007,0.32464 0.0164,0.20955 0.009,-0.11536 0.009,-0.30374 0,-0.4191 -0.009,-0.11509 -0.0164,-0.0209 -0.0164,0.20955 m 21.99031,1.31101 c 0.10821,0.11483 0.20161,0.21722 0.2077,0.22781 0.006,0.0106 0.0209,0.009 0.0333,-0.003 0.0265,-0.0265 -0.35084,-0.43339 -0.4019,-0.43339 -0.0196,0 0.0529,0.0939 0.16086,0.20849 m -31.90372,0.40082 c -0.018,0.0807 -0.022,0.15743 -0.009,0.17066 0.0331,0.0331 0.0857,-0.18971 0.0614,-0.26009 -0.0108,-0.0312 -0.0347,0.009 -0.0526,0.0894 m 16.57535,0.90091 -0.12938,0.1434 0.14314,-0.12964 c 0.13362,-0.12065 0.16378,-0.15717 0.12965,-0.15717 -0.008,0 -0.0722,0.0646 -0.14341,0.14341 m -5.34299,0.34184 c 0.0616,0.0484 0.12647,0.0881 0.1442,0.0881 0.0177,0 -0.0183,-0.0397 -0.0799,-0.0881 -0.0619,-0.0487 -0.12674,-0.0884 -0.1442,-0.0884 -0.0177,0 0.0183,0.0397 0.0799,0.0884 m -2.43734,1.11601 c 0,0.008 0.0646,0.0722 0.1434,0.14341 l 0.14314,0.12964 -0.12938,-0.1434 c -0.12065,-0.13362 -0.15716,-0.16351 -0.15716,-0.12965 m 24.785633,1.11919 c 0.0101,0.11457 0.0791,0.21167 0.082,0.11562 0.002,-0.0532 -0.0167,-0.109 -0.041,-0.12409 -0.0241,-0.0148 -0.0426,-0.0111 -0.041,0.008 m -3.743323,0.28813 c -0.002,0.12992 0.009,0.1659 0.0381,0.12065 0.0521,-0.082 0.054,-0.25029 0.003,-0.28178 -0.0214,-0.0132 -0.04,0.0593 -0.0413,0.16113 m -27.50268,0.93898 c 0.0487,0.0394 0.12806,0.0913 0.17648,0.11509 l 0.0881,0.0434 -0.0881,-0.072 c -0.0484,-0.0394 -0.12779,-0.0913 -0.17648,-0.11509 l -0.0881,-0.0431 0.0881,0.0717" />
    <path
       inkscape:connector-curvature="0"
       style="display:block;fill:#0945a6;fill-rule:evenodd;stroke:none;stroke-width:2.92007446"
       id="path3"
       d="m 84.01572,-4.276787 c -2.34707,0.346009 -5.6096,0.9886 -9.78167,1.921068 -1.0734,0.238358 -2.61406,0.57229 -3.4209,0.741451 -0.80727,0.168029 -1.90703,0.476724 -2.44683,0.688723 -0.53671,0.211989 -2.51739,0.860082 -4.40093,1.441492 -1.88067,0.581076 -3.86101,1.241021 -4.40081,1.467739 -0.53671,0.226277 -1.80151,0.759025 -2.81071,1.185772 -1.00906,0.427295 -2.6582,1.124698 -3.66737,1.549029 -3.43277,1.444454 -10.1221,4.981443 -12.42224,6.565294 -0.71302,0.494301 -1.54036,0.89523 -1.83365,0.89523 -0.29391,0 -0.53668,0.217513 -0.53668,0.485527 0,0.266906 -0.32826,0.485508 -0.73409,0.485508 -0.40143,0 -0.73297,0.217511 -0.73297,0.482213 0,0.266907 -0.28735,0.485509 -0.63984,0.485509 -0.35151,0 -1.11495,0.436093 -1.69293,0.967723 -0.57549,0.534948 -1.24394,0.971039 -1.48454,0.971039 -0.24077,0 -1.12952,0.653581 -1.97162,1.453124 -0.84496,0.799672 -1.70455,1.453145 -1.90704,1.453145 -0.205,0.0021 -1.03235,0.601959 -1.84251,1.334042 -0.80949,0.729387 -2.6815,2.33376 -4.15731,3.565992 -2.79893,2.330785 -11.72973,11.058495 -11.72973,11.465373 0,0.127557 -0.39587,0.584365 -0.88045,1.013843 C 10.03742,36.77264 9.10985,37.888208 8.45561,38.821152 7.80469,39.75371 6.7568,41.061855 6.12607,41.727399 5.49512,42.393051 4.395,43.918792 3.6821,45.11907 c -0.71634,1.19741 -1.47581,2.397689 -1.68705,2.662177 -0.83277,1.040254 -2.84883,4.222868 -3.61451,5.70512 -0.44577,0.860091 -0.94144,1.671083 -1.10666,1.804761 -0.5866,0.473417 -3.96669,7.562232 -3.96669,8.317837 0,0.421817 -0.31713,1.025958 -0.70081,1.342732 -0.387,0.316389 -0.84164,1.206099 -1.0124,1.976343 -0.16965,0.770008 -0.75404,2.304653 -1.29396,3.414828 -0.54002,1.107349 -1.05898,2.371556 -1.15002,2.804565 -0.0887,0.43607 -0.51674,1.746719 -0.93922,2.912199 -0.42581,1.165349 -0.77178,2.635937 -0.77178,3.269507 0,0.63053 -0.21955,1.148014 -0.49013,1.148014 -0.26724,0 -0.4868,0.872139 -0.4868,1.938504 0,1.066626 -0.21955,1.938546 -0.49012,1.938546 -0.26947,0 -0.49013,1.10438 -0.49013,2.45578 0,1.38637 -0.27278,2.70583 -0.62762,3.02841 -1.18528,1.07212 -2.78141,1.78158 -4.01071,1.78158 -0.67531,0 -1.22931,0.17678 -1.22931,0.39545 0,0.21749 -1.10001,0.6942 -2.44386,1.0578 -1.34374,0.36029 -2.44397,0.83702 -2.44397,1.05453 0,0.21749 -0.43468,0.39872 -0.96473,0.39872 -0.52782,0 -1.7457,0.4361 -2.70212,0.96773 -0.95918,0.53165 -2.06551,0.96774 -2.4616,0.96774 -0.39254,0 -0.71855,0.21747 -0.71855,0.48549 0,0.26694 -0.41916,0.4855 -0.9359,0.4855 -0.51674,0 -1.01241,0.16244 -1.10001,0.363597 -0.0887,0.19775 -1.26456,0.90071 -2.6083,1.55495 -1.34375,0.65688 -3.69668,2.01984 -5.23115,3.02831 -1.53147,1.00836 -2.99841,1.83387 -3.25955,1.83387 -0.2617,0 -0.5489,0.16244 -0.6365,0.36358 -0.0887,0.19989 -1.47869,1.34262 -3.08646,2.54298 -1.60776,1.19746 -3.47667,2.61279 -4.1573,3.13881 -1.49921,1.16832 -11.74448,11.33454 -11.74448,11.65718 0,0.19754 -1.60189,2.10118 -3.19502,3.7985 -0.27833,0.29664 -1.03903,1.30198 -1.68705,2.23501 -0.65092,0.9304 -1.32024,1.80474 -1.48446,1.93555 -0.65424,0.52838 -3.41513,4.80989 -3.41513,5.29529 0,0.28448 -0.21955,0.51738 -0.4868,0.51738 -0.26947,0 -0.49012,0.43605 -0.49012,0.97104 0,0.53163 -0.16965,0.9677 -0.37813,0.9677 -0.20847,0 -1.14126,1.5229 -2.07716,3.38287 -0.93589,1.86011 -1.86602,3.38588 -2.06839,3.39168 -0.19961,0.002 -0.36704,0.53826 -0.36704,1.18876 0,0.65135 -0.21955,1.31645 -0.4868,1.4821 -0.26947,0.16608 -0.49013,0.72389 -0.49013,1.24103 0,0.51408 -0.21954,0.93917 -0.49012,0.93917 -0.26724,0 -0.4868,0.424 -0.4868,0.93919 0,0.51736 -0.21955,1.07538 -0.49012,1.24101 -0.26948,0.16587 -0.49013,0.81945 -0.49013,1.45315 0,0.6338 -0.21955,1.28749 -0.4868,1.4531 -0.26947,0.16608 -0.49012,0.70302 -0.49012,1.2004 0,0.49429 -0.2761,0.98859 -0.60989,1.10143 -0.89486,0.29329 -0.89486,61.54968 0,62.43614 0.33489,0.3339 0.60989,0.99957 0.60989,1.48508 0,0.48221 0.22065,1.3108 0.49012,1.83969 0.26724,0.52833 0.70747,1.39504 0.97693,1.92391 0.26943,0.52947 0.49012,1.40086 0.49012,1.93854 0,0.53495 0.22065,0.97325 0.4868,0.97325 0.26947,0 0.49012,0.33389 0.49012,0.73814 0,0.40643 1.12363,2.96731 2.49376,5.69346 3.6205,7.19017 3.58524,7.12329 3.98432,7.12913 0.20181,0 0.36704,0.23288 0.36704,0.51406 0,0.54045 2.99553,5.0512 5.77394,8.69278 5.26641,6.90249 17.6006,19.37336 19.16134,19.37336 0.26948,0 0.49235,0.21777 0.49235,0.48551 0,0.26688 0.32823,0.48553 0.73408,0.48553 0.40141,0 0.73297,0.21775 0.73297,0.48219 0,0.26689 0.24949,0.48553 0.55444,0.48553 0.30493,0 0.91261,0.38117 1.34961,0.84909 0.4369,0.46464 1.31736,1.13933 1.95696,1.49672 0.63982,0.36031 1.95695,1.08967 2.93099,1.6276 0.97138,0.53494 1.98623,1.14512 2.25324,1.35441 1.26158,0.98527 5.99982,3.44094 10.26868,5.32423 1.34662,0.59318 2.82831,1.27302 3.29482,1.51134 0.46684,0.2382 1.27909,0.43063 1.80426,0.43063 0.5256,0 1.09114,0.21775 1.25869,0.48549 0.16747,0.26686 0.82722,0.48551 1.46693,0.48551 0.63983,0 1.29972,0.21774 1.46694,0.48221 0.16747,0.26688 0.73297,0.48553 1.25869,0.48553 0.52561,0 1.33787,0.19262 1.80437,0.42398 1.59014,0.79642 4.33628,1.5141 5.79745,1.5141 0.80061,0 1.73096,0.27022 2.06839,0.60414 0.8982,0.88977 280.41458,0.88977 281.31234,0 0.3371,-0.3339 1.33788,-0.60414 2.22687,-0.60414 0.886,0 1.61361,-0.21749 1.61361,-0.48549 0,-0.26684 0.64539,-0.48551 1.43768,-0.48551 0.78953,0 1.57251,-0.21775 1.73974,-0.48224 0.16737,-0.26688 0.95031,-0.48553 1.73984,-0.48553 0.79173,0 1.43766,-0.21774 1.43766,-0.48548 0,-0.26475 0.39585,-0.48224 0.88044,-0.48224 1.09445,0 3.51184,-1.08415 3.51771,-1.57516 0.002,-0.20096 0.33707,-0.3636 0.74515,-0.3636 0.86602,0 2.47335,-0.86005 3.84937,-2.05758 0.53338,-0.46794 1.2616,-0.84909 1.61365,-0.84909 0.35262,0 0.64206,-0.21775 0.64206,-0.48551 0,-0.26475 0.29619,-0.48224 0.65977,-0.48224 0.36373,0 1.35249,-0.65358 2.19457,-1.45325 0.84497,-0.79967 1.64589,-1.45312 1.78086,-1.45312 0.77178,0 11.9879,-10.86089 11.9879,-11.61068 0,-0.27354 0.21946,-0.49978 0.49013,-0.49978 0.26931,0 0.4901,-0.32514 0.4901,-0.72607 0,-0.40093 0.21946,-0.72607 0.48683,-0.72607 0.26931,0 0.4901,-0.34053 0.4901,-0.75575 0,-0.41521 0.21946,-0.61953 0.49013,-0.45585 0.26733,0.16608 0.48679,-0.14853 0.48679,-0.69752 0,-0.5492 0.19613,-0.99629 0.4347,-0.99629 0.23715,0 0.55112,-0.38113 0.70083,-0.84909 0.14939,-0.46464 0.5921,-1.39204 0.98244,-2.05759 0.39254,-0.66569 1.38188,-2.62737 2.19757,-4.35952 1.30562,-2.76974 1.94524,-4.51051 4.00773,-10.93346 0.26408,-0.81613 0.4779,-2.05772 0.4779,-2.75524 0,-0.69752 0.21946,-1.4037 0.49013,-1.56936 0.26965,-0.16608 0.49014,-2.23498 0.49014,-4.60072 0,-2.36858 0.19933,-4.42627 0.44579,-4.57733 0.24404,-0.1481 0.33487,-0.86887 0.19932,-1.60142 -0.13182,-0.73266 -0.35263,-3.40036 -0.48679,-5.93173 -0.13521,-2.53145 -0.44574,-4.80995 -0.68973,-5.06282 -0.246,-0.25254 -0.4491,-1.38337 -0.4491,-2.5139 0,-1.13063 -0.21945,-2.18846 -0.48678,-2.35418 -0.26931,-0.16244 -0.49015,-0.9271 -0.49015,-1.69434 0,-0.76785 -0.17655,-1.50543 -0.3925,-1.63627 -0.21426,-0.13076 -0.69861,-1.35726 -1.07342,-2.72317 -0.3759,-1.366 -0.85935,-2.59243 -1.0734,-2.72324 -0.2172,-0.13055 -0.39361,-0.75246 -0.39361,-1.38339 0,-0.62829 -0.16398,-1.21488 -0.36708,-1.30198 -0.32822,-0.14511 -1.80724,-2.69133 -3.25079,-5.60625 -0.29619,-0.59866 -0.70413,-1.08967 -0.90705,-1.08967 -0.19932,-0.002 -0.36703,-0.33171 -0.36703,-0.73264 0,-0.39767 -0.21948,-0.72609 -0.48681,-0.72609 -0.26929,0 -0.49013,-0.32512 -0.49013,-0.72716 0,-0.39763 -0.21945,-0.72609 -0.49012,-0.72609 -0.26735,0 -0.48681,-0.21509 -0.48681,-0.47669 0,-1.30791 -12.43388,-14.05496 -13.71018,-14.05496 -0.25849,0 -0.47239,-0.21776 -0.47239,-0.48221 0,-0.26686 -0.32821,-0.48551 -0.73297,-0.48551 -0.40141,0 -0.73407,-0.21774 -0.73407,-0.48553 0,-0.26476 -0.32824,-0.48219 -0.73299,-0.48219 -0.4014,0 -0.75955,-0.21775 -0.79176,-0.48553 -0.0332,-0.26684 -0.11085,-0.75573 -0.15519,-1.08965 -0.0555,-0.33392 0.0667,-0.9326 0.25523,-1.33111 0.19413,-0.40093 0.4757,-1.88326 0.63095,-3.29279 0.15339,-1.41248 0.37256,-2.72029 0.49344,-2.90922 0.23715,-0.38336 0.90041,-9.55881 0.88268,-12.20647 -0.023,-3.31897 -0.56886,-12.37212 -0.81282,-13.56088 -0.13741,-0.66563 -0.37592,-2.28428 -0.52781,-3.59795 -0.14939,-1.31078 -0.49012,-2.78137 -0.75073,-3.26964 -0.26405,-0.4855 -0.38145,-0.88316 -0.26177,-0.88316 0.24408,0 -1.0002,-5.64102 -1.49332,-6.78034 -0.17656,-0.40095 -0.35483,-1.05453 -0.40143,-1.45315 -0.0443,-0.40093 -0.20296,-1.05448 -0.34928,-1.45312 -0.1464,-0.40095 -0.49346,-1.49092 -0.77177,-2.42382 -1.98626,-6.66715 -6.83318,-16.72582 -10.84087,-22.497707 -0.81505,-1.17697 -1.48457,-2.37142 -1.48457,-2.65627 0,-0.28447 -0.16737,-0.51733 -0.37257,-0.51733 -0.20501,0 -0.91817,-0.87218 -1.58427,-1.93855 -0.66312,-1.06328 -1.37602,-1.93557 -1.58136,-1.93557 -0.20502,0 -0.3726,-0.33171 -0.3726,-0.73484 0,-0.78431 -16.88171,-17.673213 -17.66801,-17.673213 -0.25521,0 -0.73297,-0.224124 -1.05568,-0.499806 -2.81654,-2.386046 -9.95772,-6.998305 -11.71508,-7.567968 -0.47239,-0.153668 -0.85718,-0.471212 -0.85718,-0.706272 0,-0.235018 -0.42247,-0.427295 -0.93591,-0.427295 -0.5167,0 -1.0124,-0.166081 -1.09998,-0.363602 -0.23192,-0.514081 -6.27572,-3.513707 -7.07955,-3.513707 -0.3637,0 -0.66309,-0.218537 -0.66309,-0.482213 0,-0.266928 -0.53672,-0.48553 -1.19417,-0.48553 -0.65757,0 -1.32899,-0.217489 -1.49632,-0.485509 -0.16736,-0.264745 -0.83942,-0.482213 -1.49621,-0.482213 -0.65757,0 -1.19415,-0.217489 -1.19415,-0.485509 0,-0.266928 -0.64539,-0.485487 -1.43756,-0.485487 -0.78951,0 -1.57261,-0.217489 -1.73984,-0.482256 -0.16737,-0.266885 -0.82722,-0.485487 -1.46692,-0.485487 -0.63981,0 -1.29974,-0.21749 -1.46705,-0.485509 -0.16737,-0.264767 -0.93591,-0.482213 -1.71046,-0.482213 -0.77731,0 -1.54609,-0.217489 -1.71334,-0.485531 -0.16397,-0.266906 -1.05894,-0.485508 -1.98334,-0.485508 -0.92702,0 -1.68406,-0.179993 -1.68406,-0.404224 0,-0.224124 -1.35849,-0.453662 -3.01905,-0.511876 -1.66051,-0.06592 -3.40622,-0.314163 -3.87859,-0.563499 -0.47575,-0.252524 -2.18575,-0.455867 -3.80238,-0.455867 h -2.94274 l -1.56664,-2.301785 c -5.90866,-8.675082 -16.23899,-20.09979 -22.4413,-24.819596 -1.21164,-0.918304 -2.55541,-2.060561 -2.99253,-2.53432 -0.43466,-0.473438 -0.98246,-0.863365 -1.22055,-0.863365 -0.23716,0 -1.20288,-0.653602 -2.14468,-1.450299 -0.93921,-0.79965 -1.9862,-1.453124 -2.32078,-1.453124 -0.3371,0 -0.6132,-0.183416 -0.6132,-0.404223 0,-0.220785 -0.60436,-0.711794 -1.34362,-1.089672 -0.73962,-0.377856 -1.77212,-1.069875 -2.2914,-1.534517 -0.5223,-0.464642 -1.23817,-0.848002 -1.59025,-0.848002 -0.35261,0 -0.64203,-0.192256 -0.64203,-0.427293 0,-0.235065 -0.38481,-0.549223 -0.85384,-0.697515 -0.83943,-0.261434 -3.54999,-1.784423 -4.0341,-2.264004 -0.58327,-0.577784 -2.49388,-1.453132 -3.1715,-1.453132 -0.40808,0 -0.74188,-0.217513 -0.74188,-0.485511 0,-0.266924 -0.44019,-0.485515 -0.97691,-0.485515 -0.53666,0 -0.97691,-0.217513 -0.97691,-0.482216 0,-0.266924 -0.31032,-0.485513 -0.68971,-0.485513 -0.3759,0 -1.64304,-0.467937 -2.81073,-1.038028 -1.16774,-0.570097 -2.67283,-1.249702 -3.34756,-1.508386 -0.67199,-0.261435 -1.6049,-0.66566 -2.07142,-0.900725 -0.4668,-0.235064 -1.29092,-0.427297 -1.83361,-0.427297 -0.54003,0 -0.98248,-0.217512 -0.98248,-0.485511 0,-0.266922 -0.5367,-0.485513 -1.19418,-0.485513 -0.65753,0 -1.32906,-0.217513 -1.49631,-0.482217 -0.16757,-0.266924 -0.93587,-0.485513 -1.71044,-0.485513 -0.77731,0 -1.54611,-0.217513 -1.71344,-0.485514 -0.16397,-0.264728 -0.93591,-0.482217 -1.71044,-0.482217 -0.77399,0 -1.54609,-0.217513 -1.71044,-0.485511 -0.16737,-0.266922 -1.15604,-0.485513 -2.2005,-0.485513 -1.04454,0 -2.0185,-0.188939 -2.1623,-0.421803 -0.144,-0.232888 -1.31435,-0.558011 -2.59644,-0.726072 -1.28207,-0.165867 -3.65264,-0.503089 -5.26629,-0.746943 -3.47665,-0.526156 -31.19636,-0.549221 -34.71704,-0.03296 m 28.8727,40.630188 c 0.25521,0.243772 1.56674,0.557999 2.91048,0.700816 4.07227,0.436048 6.11125,0.880935 6.11125,1.336909 0,0.234997 0.75738,0.430591 1.68408,0.430591 0.92369,0 1.79263,0.174642 1.92468,0.388835 0.13182,0.211882 1.35549,0.688723 2.71678,1.054508 1.36433,0.369081 2.4762,0.845794 2.4762,1.063283 0,0.220678 0.3172,0.397631 0.70415,0.397631 0.69196,0 5.46001,2.336735 10.29807,5.048351 2.40874,1.348467 7.20572,4.719806 8.47018,5.94917 0.35485,0.346009 0.79837,0.628326 0.98246,0.628326 0.45797,0 8.39688,7.608696 8.39688,8.047548 0,0.192192 0.33158,0.691997 0.74183,1.115996 2.441,2.525567 4.14568,4.670388 4.14568,5.219719 0,0.348213 0.21946,0.633804 0.49013,0.633804 0.26965,0 0.49014,0.325143 0.49014,0.727162 0,0.397631 0.21946,0.726069 0.48679,0.726069 0.26961,0 0.4901,0.325142 0.4901,0.72607 0,0.397653 0.21948,0.726091 0.49013,0.726091 0.26733,0 0.48681,0.270181 0.49012,0.60412 0,0.333938 0.88047,1.860022 1.95399,3.394517 1.07671,1.534538 1.95696,2.906269 1.95696,3.048765 0,0.142753 0.2283,0.52063 0.50783,0.842476 0.2818,0.322981 1.26158,1.784451 2.17696,3.249218 3.51483,5.617886 4.17197,6.126466 8.4349,6.515966 6.70999,0.61623 12.9797,1.14217 17.23978,1.44448 7.53431,0.5371 13.51947,1.88613 17.50082,3.94089 0.72741,0.37788 1.6224,0.68872 1.98322,0.68872 1.26745,0.004 10.33918,5.399717 10.75279,6.393707 0.0889,0.21535 0.47574,0.39215 0.85719,0.39215 0.37812,0 0.69193,0.21749 0.69193,0.48221 0,0.26691 0.25293,0.48551 0.56332,0.48551 0.31065,0 1.42879,0.87216 2.48214,1.93855 1.05564,1.06328 2.06551,1.93852 2.24734,1.94137 0.18175,0.002 0.80728,0.60196 1.38778,1.33111 0.58326,0.72934 1.93931,2.24368 3.01602,3.3655 1.07674,1.11899 2.35305,2.69997 2.83709,3.51086 0.48459,0.81065 1.05009,1.47643 1.26158,1.47643 0.21065,0 0.38475,0.2845 0.38475,0.63378 0,0.34824 0.387,1.0578 0.85941,1.57518 0.7862,0.86011 3.47377,6.03345 4.63554,8.93101 0.26736,0.66567 0.68089,1.58982 0.91814,2.05194 0.23719,0.46239 0.43136,1.2788 0.43136,1.81638 0,0.53822 0.21946,0.9765 0.49015,0.9765 0.26931,0 0.49012,0.75021 0.49012,1.66534 0,0.91831 0.21946,1.8019 0.48681,1.96753 0.26931,0.16244 0.49012,1.1393 0.49012,2.16811 0,1.02595 0.22635,1.94141 0.50453,2.03443 0.69194,0.22624 0.69528,19.263 0.002,19.94886 -0.27817,0.27568 -0.50784,1.43865 -0.50784,2.58663 0,1.1451 -0.21945,2.08089 -0.49016,2.08089 -0.26733,0 -0.48677,0.75023 -0.48677,1.66821 0,0.91499 -0.21945,1.8019 -0.49014,1.96468 -0.26963,0.16608 -0.49013,0.83152 -0.49013,1.48226 0,0.65135 -0.21945,1.18277 -0.48678,1.18277 -0.26965,0 -0.49015,0.54595 -0.49015,1.21202 0,0.66566 -0.21945,1.20897 -0.49012,1.20897 -0.26735,0 -0.49011,0.38336 -0.49568,0.84911 -0.01,0.99075 -1.1266,4.31293 -1.61363,4.79547 -0.18535,0.1802 -0.33488,0.84029 -0.33488,1.46181 0,0.62171 -0.21946,1.13051 -0.49012,1.13051 -0.26733,0 -0.48679,0.65358 -0.48679,1.45325 0,0.79965 -0.21946,1.45314 -0.49013,1.45314 -0.26964,0 -0.49014,0.65356 -0.49014,1.45313 0,0.79967 -0.21946,1.45312 -0.48679,1.45312 -0.26963,0 -0.49012,0.53165 -0.49012,1.17995 0,0.65137 -0.17616,1.29329 -0.39256,1.42414 -0.21382,0.13056 -0.6986,1.35724 -1.07338,2.72315 -0.37592,1.36604 -0.85939,2.59243 -1.07342,2.72326 -0.21742,0.13056 -0.39254,0.77331 -0.39254,1.42402 0,0.6481 -0.21945,1.17997 -0.49012,1.17997 -0.26733,0 -0.48679,0.49098 -0.48459,1.08963 0.006,1.43865 1.93045,2.30182 5.13136,2.30182 1.37013,0 2.70221,0.19776 2.9574,0.44155 0.44019,0.41852 2.30614,0.67665 9.38855,1.30781 1.68116,0.14853 3.0572,0.47125 3.0572,0.71511 0,0.24165 1.19703,0.44155 2.65807,0.44155 1.46406,0 2.79892,0.21776 2.96325,0.4855 0.16757,0.26475 0.73076,0.48224 1.25283,0.48224 0.52228,0 0.94812,0.16587 0.94812,0.36578 0,0.20333 0.71633,0.67663 1.5901,1.05451 3.36814,1.46192 9.65848,9.2043 9.65848,11.89549 0,0.40093 0.21946,0.73269 0.48679,0.73269 0.26962,0 0.49012,1.09294 0.49012,2.42677 0,1.33691 0.26735,2.85399 0.59548,3.37134 0.46683,0.74148 0.46683,1.29331 0,2.57205 -0.32825,0.89521 -0.59548,2.30757 -0.59548,3.13881 0,0.83147 -0.21946,1.64501 -0.49012,1.81067 -0.26733,0.16608 -0.48679,0.83151 -0.48679,1.48223 0,0.65139 -0.17836,1.18277 -0.39921,1.18277 -0.21946,0 -0.77513,0.78214 -1.23518,1.73514 -0.94477,1.9617 -5.43662,6.86176 -6.92406,7.54766 -0.5367,0.24933 -1.85716,0.97097 -2.93388,1.60139 -1.07673,0.63049 -2.7814,1.16533 -3.79061,1.18577 -1.00687,0.0214 -1.83375,0.25597 -1.83375,0.52286 0,0.63378 -255.83134,0.67442 -256.49734,0.0441 -0.25504,-0.24378 -1.78374,-0.5635 -3.39739,-0.70959 -4.93784,-0.44487 -7.57831,-0.86555 -7.57831,-1.2119 0,-0.18342 -0.59547,-0.3779 -1.32322,-0.43939 -0.72743,-0.055 -1.54323,-0.32517 -1.81025,-0.58989 -0.26724,-0.26477 -0.85384,-0.48221 -1.29972,-0.48221 -1.03902,0 -6.02621,-2.01707 -6.24333,-2.52268 -0.0887,-0.21188 -0.5866,-0.38338 -1.10001,-0.38338 -0.51673,0 -0.93922,-0.19197 -0.93922,-0.424 0,-0.23501 -0.65978,-0.69749 -1.46694,-1.02923 -0.80726,-0.33171 -1.46693,-0.79308 -1.46693,-1.02593 0,-0.23502 -0.30828,-0.42732 -0.68418,-0.42732 -0.77178,0 -5.47465,-3.39749 -8.3939,-6.06249 -1.05897,-0.96779 -2.14767,-1.90658 -2.42046,-2.08687 -0.27278,-0.18021 -1.48168,-1.52572 -2.68748,-2.99051 -1.20879,-1.46478 -2.35892,-2.73774 -2.56129,-2.82498 -0.20291,-0.088 -0.36704,-0.37788 -0.36704,-0.63928 0,-0.26475 -0.2761,-0.76781 -0.60989,-1.11887 -1.37601,-1.43305 -2.13892,-2.55775 -3.30069,-4.86251 -0.67198,-1.33107 -1.38776,-2.49357 -1.59025,-2.58361 -0.20182,-0.088 -0.37258,-0.52288 -0.37813,-0.96779 -0.006,-0.44484 -0.44022,-1.3514 -0.96472,-2.0199 -0.52783,-0.66565 -0.96251,-1.57813 -0.96805,-2.02862 -0.006,-0.45035 -0.23175,-0.95343 -0.499,-1.11887 -0.26947,-0.16608 -0.49012,-0.81943 -0.49012,-1.45312 0,-0.63381 -0.22066,-1.28752 -0.49013,-1.45315 -0.26724,-0.16587 -0.4868,-1.04898 -0.4868,-1.96763 0,-0.91501 -0.21955,-1.66524 -0.49012,-1.66524 -0.26944,0 -0.49013,-0.71839 -0.49013,-1.59845 0,-0.87768 -0.19072,-1.80487 -0.42803,-2.05773 -1.0002,-1.0721 -1.36126,-11.98855 -0.59879,-18.14117 0.88045,-7.11461 1.11487,-8.46318 1.56674,-8.93683 0.24063,-0.25255 0.44022,-0.96441 0.44022,-1.58107 0,-0.61625 0.19406,-1.49965 0.43136,-1.96174 0.23729,-0.46244 0.65091,-1.38635 0.91815,-2.0519 0.85051,-2.12153 3.75245,-7.9836 4.07525,-8.23349 0.16964,-0.13398 0.79174,-1.18292 1.38188,-2.33376 0.5866,-1.14799 1.71633,-2.76095 2.50851,-3.58345 0.79174,-0.82273 1.44055,-1.71766 1.44055,-1.99084 0,-0.48001 8.36451,-8.79161 10.78796,-10.72134 1.99799,-1.5898 7.39346,-4.71399 10.23941,-5.92886 1.47869,-0.63053 3.13047,-1.33396 3.66728,-1.56367 2.86357,-1.2177 6.31674,-2.45864 6.8449,-2.45864 0.62208,0 5.21651,-1.68566 6.71859,-2.46457 0.46684,-0.24165 1.18529,-0.44157 1.59613,-0.44157 0.41028,0 1.12662,-0.19455 1.59601,-0.43611 0.46684,-0.24166 1.83664,-0.71507 3.04831,-1.05229 1.20879,-0.34053 2.40871,-0.79637 2.66397,-1.01714 0.25504,-0.22067 0.86604,-0.40094 1.35262,-0.40094 0.4868,0 1.26744,-0.19434 1.73684,-0.4361 0.46684,-0.24165 1.80725,-0.71727 2.9779,-1.0633 2.5554,-0.75023 3.33584,-1.828 3.64687,-5.03955 0.12858,-1.33109 0.35486,-2.74929 0.49899,-3.14748 0.1463,-0.40092 0.37592,-1.59846 0.51011,-2.66506 0.13186,-1.06656 0.39917,-2.34254 0.58992,-2.83659 0.19058,-0.49103 0.387,-1.47345 0.4369,-2.17679 0.0554,-0.70632 0.27291,-1.91822 0.49013,-2.69415 0.21944,-0.77553 0.44355,-1.97337 0.49345,-2.66505 0.0443,-0.68872 0.21058,-1.57813 0.35482,-1.97919 0.144,-0.39765 0.52228,-2.141947 0.83945,-3.873977 0.62206,-3.37421 1.35838,-6.02476 2.05074,-7.37916 0.23519,-0.46464 0.42804,-1.28165 0.42804,-1.81638 0,-0.53713 0.21945,-0.97652 0.49013,-0.97652 0.26734,0 0.48679,-0.424 0.48679,-0.93917 0,-0.51735 0.21945,-1.07537 0.49013,-1.24101 0.26931,-0.16608 0.49013,-0.723861 0.49013,-1.241024 0,-0.514081 0.21944,-0.939172 0.48679,-0.939172 0.26931,0 0.49013,-0.543744 0.49013,-1.21192 0,-0.665652 0.17846,-1.209054 0.39918,-1.209054 0.21747,0 0.69859,-0.764508 1.06785,-1.697215 0.36926,-0.93258 0.85053,-1.694434 1.06785,-1.694434 0.21943,0 0.3992,-0.337257 0.3992,-0.746981 0,-0.409702 0.44024,-1.214853 0.97692,-1.787362 0.54003,-0.572316 0.98027,-1.325267 0.98027,-1.674058 0,-0.348193 0.21946,-0.635988 0.48679,-0.635988 0.26931,0 0.49013,-0.284478 0.49013,-0.633783 0,-0.349306 0.39032,-1.057826 0.86825,-1.575202 0.47793,-0.517334 1.40827,-1.700148 2.06839,-2.633048 0.65978,-0.932601 1.64303,-2.153619 2.18582,-2.711638 0.54557,-0.557998 1.78376,-1.865823 2.75491,-2.906269 4.93485,-5.286599 13.83927,-12.305322 15.61138,-12.305322 0.25848,0 0.47239,-0.176783 0.47239,-0.395427 0,-0.503081 6.10837,-3.830523 9.28875,-5.057041 0.67419,-0.261299 1.60486,-0.665651 2.07138,-0.900711 0.46907,-0.235018 1.1823,-0.427295 1.59013,-0.427295 0.40806,0 0.73963,-0.217489 0.73963,-0.485509 0,-0.266928 0.55446,-0.48553 1.2293,-0.48553 0.67753,0 1.61076,-0.188768 2.08016,-0.423978 1.51971,-0.761234 4.31287,-1.511252 5.62135,-1.511252 0.70414,0 1.41716,-0.218538 1.58436,-0.485509 0.16401,-0.266928 1.00356,-0.488826 1.86305,-0.491031 0.85715,-0.0043 1.88941,-0.217468 2.29137,-0.476712 0.93592,-0.598641 22.6234,-0.639284 23.25125,-0.04409 m 9.02173,60.532335 c 0,0.23287 -0.64535,0.55251 -1.43757,0.70958 -1.89827,0.374557 -6.81836,5.251667 -7.19684,7.129137 -0.15858,0.78428 -0.48125,1.42697 -0.71633,1.42697 -0.61655,0 -0.55779,50.72366 0.0665,51.10154 0.26733,0.16608 0.48677,0.72386 0.48677,1.2409 0,0.5141 0.21946,0.93919 0.49014,0.93919 0.26931,0 0.49011,0.2933 0.49011,0.64806 0,0.94138 4.1602,5.16456 5.08442,5.16456 0.43135,0 0.7829,0.21749 0.7829,0.48551 0,0.26475 0.42582,0.48224 0.94809,0.48224 0.52228,0 1.08559,0.21749 1.25278,0.48551 0.37815,0.60743 6.31662,0.63928 7.4639,0.0439 0.46686,-0.24377 1.65765,-0.79308 2.64922,-1.21776 2.09192,-0.90069 5.77693,-4.24611 5.77693,-5.24296 0,-0.37786 0.15279,-0.83373 0.33712,-1.01716 1.01795,-1.00837 1.60774,-4.50769 1.64589,-9.75936 0.0332,-4.54549 0.15518,-5.57427 0.56885,-4.72274 0.29392,0.60191 0.71857,1.08963 0.94478,1.08963 0.22831,0 0.41695,0.43609 0.41695,0.97104 0,0.53165 0.21945,0.96772 0.48678,0.96772 0.26965,0 0.49015,0.41854 0.49015,0.92708 0,0.51192 0.16397,1.00288 0.36703,1.08967 0.54886,0.24165 2.56718,6.39677 2.56718,7.82663 0,0.68325 0.21946,1.37471 0.4901,1.54036 0.29062,0.17678 0.48681,3.22315 0.48681,7.50699 0,4.28391 -0.19613,7.32968 -0.48681,7.507 -0.26931,0.16608 -0.4901,0.94467 -0.4901,1.73212 0,1.72632 -1.06785,5.29242 -1.58727,5.29242 -0.20298,0 -0.36927,0.4152 -0.36927,0.92381 0,0.98861 -1.95692,5.02491 -2.56714,5.29229 -0.19932,0.088 -0.36707,0.57775 -0.36707,1.08967 0,0.51188 -0.17097,0.92708 -0.38144,0.92708 -0.212,0 -0.74185,0.60192 -1.17941,1.33406 -2.49086,4.16761 -11.90581,12.71503 -14.00648,12.71503 -0.26735,0 -0.56,0.16244 -0.6487,0.36362 -0.26733,0.59312 -4.33928,2.54299 -5.31631,2.54299 -0.49565,0 -1.03902,0.21749 -1.20581,0.48224 -0.16398,0.26684 -0.79505,0.48548 -1.39652,0.48548 -0.60432,0 -1.3056,0.19455 -1.56082,0.43612 -1.12953,1.05778 -16.55906,1.97916 -17.50083,1.04571 -0.28504,-0.28236 -1.46406,-0.51406 -2.61994,-0.51406 -1.15888,0 -2.10366,-0.21775 -2.10366,-0.48224 0,-0.26688 -0.38477,-0.4888 -0.85716,-0.49101 -3.63802,-0.033 -13.84514,-5.76322 -18.39267,-10.33482 -2.41169,-2.41802 -5.68888,-6.4549 -5.68888,-7.00415 0,-0.27354 -0.16402,-0.57011 -0.36706,-0.65685 -0.32822,-0.14511 -2.57004,-4.48156 -3.58521,-6.94315 -3.10409,-7.51864 -3.68505,-18.67017 -1.4024,-26.88335 1.01238,-3.65321 5.23989,-12.59586 5.9499,-12.59586 0.21058,0 0.38146,-0.29999 0.38146,-0.66899 0,-0.36576 2.36767,-3.04001 5.25767,-5.94343 2.88982,-2.90045 5.55679,-5.92304 5.92352,-6.71644 0.36926,-0.79308 0.8627,-1.82221 1.09999,-2.28434 0.59546,-1.15666 0.54889,-7.99229 -0.0554,-8.3643 -0.26931,-0.16245 -0.49014,-0.72062 -0.49014,-1.23808 0,-0.51735 -0.21945,-0.94135 -0.48678,-0.94135 -0.26931,0 -0.49014,-0.27021 -0.49014,-0.60417 -0.003,-1.67983 -4.74112,-5.33304 -7.82471,-6.03056 -7.23798,-1.63624 -12.60997,0.98859 -20.63127,10.08767 -3.28605,3.72878 -6.26096,7.58556 -6.26096,8.12025 0,0.25043 -0.1942,0.52945 -0.42801,0.61953 -0.23519,0.088 -1.0091,1.2497 -1.72222,2.58376 -0.713,1.33098 -1.68992,3.07477 -2.16818,3.87397 -1.27332,2.12749 -4.49475,10.99172 -5.19301,14.29036 -0.95032,4.48155 -1.08891,5.32724 -0.87711,5.32724 0.13186,0 -0.0666,0.35699 -0.42803,0.79636 -0.77178,0.9183 -0.98581,19.53616 -0.24635,21.24215 0.2283,0.53495 0.50453,1.81069 0.60989,2.83952 0.11089,1.02593 0.34929,2.11582 0.54226,2.42095 0.19058,0.30537 0.41692,1.09855 0.49899,1.76412 0.0777,0.66565 0.28735,1.53747 0.45464,1.93852 0.16402,0.39766 0.35263,0.94465 0.41692,1.20893 1.41706,6.03058 6.4751,15.77545 11.63295,22.41347 2.25611,2.90625 10.5298,11.25322 11.15176,11.25322 0.19615,0 0.64539,0.27902 1.00021,0.61953 0.35486,0.34271 1.41717,1.15083 2.35892,1.79322 0.93924,0.64479 1.82191,1.3078 1.95398,1.47346 0.13515,0.16608 1.23517,0.83152 2.44686,1.47639 1.20877,0.6481 2.27377,1.33977 2.36181,1.54033 0.0886,0.19776 0.5866,0.36363 1.09999,0.36363 0.51674,0 0.93924,0.16244 0.94143,0.36356 0.007,0.43279 2.37358,1.57233 3.27132,1.57233 0.34931,0 0.6365,0.21775 0.6365,0.48553 0,0.26684 0.42804,0.48549 0.94809,0.48549 0.52228,0 1.08559,0.21774 1.25282,0.48223 0.16761,0.26684 0.83941,0.48551 1.49631,0.48551 0.65759,0 1.19404,0.21721 1.19404,0.48553 0,0.26475 0.65979,0.48221 1.46696,0.48221 0.80727,0 1.46692,0.21775 1.46692,0.48551 0,0.26685 0.64539,0.48549 1.43767,0.48549 0.78952,0 1.57261,0.21777 1.73984,0.48221 0.1676,0.26689 1.15589,0.48553 2.20045,0.48553 1.04459,0 2.03316,0.21777 2.20035,0.48551 0.16761,0.26477 1.71934,0.48222 3.45326,0.48222 1.77212,0 3.14812,0.21188 3.14812,0.4855 0,0.29878 2.52606,0.48554 6.60129,0.48554 4.07514,0 6.60128,-0.18556 6.60128,-0.48554 0,-0.27354 1.376,-0.4855 3.14812,-0.4855 1.73393,0 3.28593,-0.21775 3.45314,-0.48222 0.16736,-0.26684 1.17064,-0.48551 2.22982,-0.48551 1.059,0 1.92758,-0.21774 1.92758,-0.48553 0,-0.26474 0.88047,-0.48221 1.95396,-0.48221 1.07676,0 1.95698,-0.21775 1.95698,-0.48549 0,-0.26686 0.42801,-0.48551 0.94808,-0.48551 0.5223,0 1.08558,-0.21776 1.25269,-0.48221 0.16757,-0.26686 0.93593,-0.48553 1.71058,-0.48553 0.77733,0 1.54611,-0.21749 1.71335,-0.48551 0.16398,-0.26476 0.72738,-0.48223 1.2499,-0.48223 0.52226,0 0.95029,-0.21723 0.95029,-0.48549 0,-0.26689 0.44025,-0.48553 0.97693,-0.48553 0.53672,0 0.98027,-0.16244 0.98027,-0.3636 0,-0.19754 1.20867,-0.90621 2.68737,-1.57229 1.47868,-0.66565 2.68747,-1.37471 2.68747,-1.57527 0,-0.20097 0.33157,-0.36362 0.73633,-0.36362 0.40138,0 0.73297,-0.21775 0.73297,-0.48551 0,-0.26475 0.287,-0.48221 0.63979,-0.48221 0.35264,0 1.06785,-0.39214 1.59029,-0.86887 0.52226,-0.47669 1.93631,-1.54321 3.14796,-2.36571 3.74958,-2.55466 11.61829,-10.56143 13.41391,-13.65093 0.25293,-0.43059 0.85718,-1.20896 1.34662,-1.72919 0.48681,-0.52065 0.88598,-1.22936 0.88598,-1.57813 0,-0.35151 0.21946,-0.63599 0.49014,-0.63599 0.26963,0 0.49013,-0.28448 0.49013,-0.63599 0,-0.3493 0.44021,-1.10152 0.97693,-1.67403 0.53668,-0.57228 0.97691,-1.37469 0.97691,-1.78739 0,-0.40972 0.21946,-0.74693 0.49015,-0.74693 0.26931,0 0.4901,-0.43609 0.4901,-0.96773 0,-0.53165 0.21946,-0.96774 0.48683,-0.96774 0.26931,0 0.49008,-0.43609 0.49008,-0.97102 0,-0.53165 0.21946,-0.96776 0.49013,-0.96776 0.26735,0 0.48683,-0.53161 0.48683,-1.1829 0,-0.6514 0.21945,-1.31647 0.4901,-1.4821 0.26963,-0.16245 0.49012,-0.72062 0.49012,-1.23818 0,-0.51738 0.21946,-0.94138 0.48681,-0.94138 0.26963,0 0.49012,-0.65356 0.49012,-1.45315 0,-0.79969 0.21946,-1.45312 0.49015,-1.45312 0.26733,0 0.48679,-0.6393 0.48679,-1.42414 0,-0.78208 0.21945,-1.55772 0.49012,-1.72331 0.26931,-0.16608 0.49014,-1.03807 0.49014,-1.93855 0,-0.90075 0.21946,-1.77289 0.48677,-1.93557 0.26931,-0.16608 0.49013,-1.48523 0.49013,-2.9354 0,-1.45027 0.20839,-2.63606 0.4635,-2.63606 0.2762,0 0.46354,-3.36552 0.46354,-8.23347 0,-4.87108 -0.18714,-8.23647 -0.46354,-8.23647 -0.25519,0 -0.4635,-1.29331 -0.4635,-2.87727 0,-1.581 -0.21946,-3.01096 -0.49013,-3.17662 -0.26733,-0.16608 -0.48677,-1.14512 -0.48677,-2.17973 0,-1.03475 -0.21945,-2.01401 -0.49014,-2.17975 -0.26963,-0.16608 -0.49012,-0.81942 -0.49012,-1.45314 0,-0.63378 -0.21946,-1.28749 -0.48679,-1.45315 -0.26965,-0.16608 -0.49015,-0.94135 -0.49015,-1.72347 0,-0.78427 -0.21945,-1.42398 -0.49012,-1.42398 -0.26735,0 -0.48681,-0.424 -0.48681,-0.94137 0,-0.51738 -0.21945,-1.07538 -0.49012,-1.23808 -0.26931,-0.16608 -0.4901,-0.83152 -0.4901,-1.48225 0,-0.65138 -0.21946,-1.1829 -0.48683,-1.1829 -0.26931,0 -0.49013,-0.43611 -0.49013,-0.96772 0,-0.53495 -0.21945,-0.97102 -0.49008,-0.97102 -0.26735,0 -0.48683,-0.43609 -0.48683,-0.96772 0,-0.53167 -0.21946,-0.96774 -0.4901,-0.96774 -0.26963,0 -0.49015,-0.38886 -0.49015,-0.86337 0,-0.47344 -0.44023,-1.17699 -0.97691,-1.56069 -0.53672,-0.38338 -0.97693,-1.08415 -0.97693,-1.55782 0,-0.47672 -0.205,-0.86339 -0.45799,-0.86339 -0.24962,0 -0.5777,-0.38113 -0.72742,-0.84909 -0.14939,-0.46464 -0.84827,-1.45897 -1.5491,-2.21162 -1.68104,-1.79318 -1.78372,-1.75838 5.08455,-1.81649 3.2772,-0.033 6.08199,-0.2504 6.2316,-0.49426 0.15279,-0.24377 0.6986,-0.44161 1.21167,-0.44161 2.14765,0 7.81016,-4.45825 7.81016,-6.14975 0,-0.34601 0.21946,-0.63049 0.48679,-0.63049 0.26931,0 0.49014,-0.424 0.49014,-0.94138 0,-0.51737 0.21946,-1.07539 0.49013,-1.23805 1.6634,-1.02046 0.15518,-9.23618 -2.23574,-12.17738 -0.78953,-0.97102 -1.50508,-1.95017 -1.596,-2.17975 -0.0885,-0.22943 -0.37258,-0.4185 -0.63096,-0.4185 -0.25847,0 -0.94143,-0.43609 -1.51973,-0.96774 -0.57772,-0.53163 -1.55795,-0.967717 -2.17995,-0.967717 -0.62206,0 -1.12948,-0.21749 -1.12948,-0.48552 0,-0.31635 -8.96607,-0.48551 -25.91531,-0.48551 -14.48476,0 -25.9182,0.18876 -25.9182,0.424" />
  </g>
</svg>
